<svg width="36" height="43" viewBox="0 0 36 43" fill="none" xmlns="http://www.w3.org/2000/svg">
<g clip-path="url(#clip0)">
<path d="M14.7927 0H13.6932V1.075H14.7927V0Z" fill="#0F022E"/>
<path d="M15.892 0H14.7926V1.075H15.892V0Z" fill="#0F022E"/>
<path d="M16.9915 0H15.8921V1.075H16.9915V0Z" fill="#0F022E"/>
<path d="M18.0909 0H16.9915V1.075H18.0909V0Z" fill="#0F022E"/>
<path d="M19.1904 0H18.0909V1.075H19.1904V0Z" fill="#0F022E"/>
<path d="M20.2897 0H19.1903V1.075H20.2897V0Z" fill="#0F022E"/>
<path d="M21.3892 0H20.2898V1.075H21.3892V0Z" fill="#0F022E"/>
<path d="M22.4886 0H21.3892V1.075H22.4886V0Z" fill="#0F022E"/>
<path d="M14.7927 1.07495H13.6932V2.14995H14.7927V1.07495Z" fill="#0F022E"/>
<path d="M15.892 1.07495H14.7926V2.14995H15.892V1.07495Z" fill="#0F022E"/>
<path d="M16.9915 1.07495H15.8921V2.14995H16.9915V1.07495Z" fill="#0F022E"/>
<path d="M18.0909 1.07495H16.9915V2.14995H18.0909V1.07495Z" fill="#0F022E"/>
<path d="M19.1904 1.07495H18.0909V2.14995H19.1904V1.07495Z" fill="#0F022E"/>
<path d="M20.2897 1.07495H19.1903V2.14995H20.2897V1.07495Z" fill="#0F022E"/>
<path d="M21.3892 1.07495H20.2898V2.14995H21.3892V1.07495Z" fill="#0F022E"/>
<path d="M22.4886 1.07495H21.3892V2.14995H22.4886V1.07495Z" fill="#0F022E"/>
<path d="M14.7927 2.1499H13.6932V3.2249H14.7927V2.1499Z" fill="#0F022E"/>
<path d="M15.892 2.1499H14.7926V3.2249H15.892V2.1499Z" fill="#0F022E"/>
<path d="M16.9915 2.1499H15.8921V3.2249H16.9915V2.1499Z" fill="#0F022E"/>
<path d="M18.0909 2.1499H16.9915V3.2249H18.0909V2.1499Z" fill="#0F022E"/>
<path d="M19.1904 2.1499H18.0909V3.2249H19.1904V2.1499Z" fill="#0F022E"/>
<path d="M20.2897 2.1499H19.1903V3.2249H20.2897V2.1499Z" fill="#0F022E"/>
<path d="M21.3892 2.1499H20.2898V3.2249H21.3892V2.1499Z" fill="#0F022E"/>
<path d="M22.4886 2.1499H21.3892V3.2249H22.4886V2.1499Z" fill="#0F022E"/>
<path d="M14.7927 3.2251H13.6932V4.3001H14.7927V3.2251Z" fill="#0F022E"/>
<path d="M15.892 3.2251H14.7926V4.3001H15.892V3.2251Z" fill="#0F022E"/>
<path d="M16.9915 3.2251H15.8921V4.3001H16.9915V3.2251Z" fill="#0F022E"/>
<path d="M18.0909 3.2251H16.9915V4.3001H18.0909V3.2251Z" fill="#0F022E"/>
<path d="M19.1904 3.2251H18.0909V4.3001H19.1904V3.2251Z" fill="#0F022E"/>
<path d="M20.2897 3.2251H19.1903V4.3001H20.2897V3.2251Z" fill="#0F022E"/>
<path d="M21.3892 3.2251H20.2898V4.3001H21.3892V3.2251Z" fill="#0F022E"/>
<path d="M22.4886 3.2251H21.3892V4.3001H22.4886V3.2251Z" fill="#0F022E"/>
<path d="M10.3948 4.30005H9.29541V5.37505H10.3948V4.30005Z" fill="#0F022E"/>
<path d="M11.4943 4.30005H10.3949V5.37505H11.4943V4.30005Z" fill="#0F022E"/>
<path d="M12.5937 4.30005H11.4943V5.37505H12.5937V4.30005Z" fill="#0F022E"/>
<path d="M13.6932 4.30005H12.5938V5.37505H13.6932V4.30005Z" fill="#0F022E"/>
<path d="M14.7927 4.30005H13.6932V5.37505H14.7927V4.30005Z" fill="#FAFFFF"/>
<path d="M15.892 4.30005H14.7926V5.37505H15.892V4.30005Z" fill="#FAFFFF"/>
<path d="M16.9915 4.30005H15.8921V5.37505H16.9915V4.30005Z" fill="#FAFFFF"/>
<path d="M18.0909 4.30005H16.9915V5.37505H18.0909V4.30005Z" fill="#FAFFFF"/>
<path d="M19.1904 4.30005H18.0909V5.37505H19.1904V4.30005Z" fill="#FAFFFF"/>
<path d="M20.2897 4.30005H19.1903V5.37505H20.2897V4.30005Z" fill="#FAFFFF"/>
<path d="M21.3892 4.30005H20.2898V5.37505H21.3892V4.30005Z" fill="#FAFFFF"/>
<path d="M22.4886 4.30005H21.3892V5.37505H22.4886V4.30005Z" fill="#FAFFFF"/>
<path d="M23.5881 4.30005H22.4886V5.37505H23.5881V4.30005Z" fill="#0F022E"/>
<path d="M24.6874 4.30005H23.588V5.37505H24.6874V4.30005Z" fill="#0F022E"/>
<path d="M25.7869 4.30005H24.6875V5.37505H25.7869V4.30005Z" fill="#0F022E"/>
<path d="M26.8864 4.30005H25.787V5.37505H26.8864V4.30005Z" fill="#0F022E"/>
<path d="M10.3948 5.375H9.29541V6.45H10.3948V5.375Z" fill="#0F022E"/>
<path d="M11.4943 5.375H10.3949V6.45H11.4943V5.375Z" fill="#0F022E"/>
<path d="M12.5937 5.375H11.4943V6.45H12.5937V5.375Z" fill="#0F022E"/>
<path d="M13.6932 5.375H12.5938V6.45H13.6932V5.375Z" fill="#0F022E"/>
<path d="M14.7927 5.375H13.6932V6.45H14.7927V5.375Z" fill="#FAFFFF"/>
<path d="M15.892 5.375H14.7926V6.45H15.892V5.375Z" fill="#FAFFFF"/>
<path d="M16.9915 5.375H15.8921V6.45H16.9915V5.375Z" fill="#FAFFFF"/>
<path d="M18.0909 5.375H16.9915V6.45H18.0909V5.375Z" fill="#FAFFFF"/>
<path d="M19.1904 5.375H18.0909V6.45H19.1904V5.375Z" fill="#FAFFFF"/>
<path d="M20.2897 5.375H19.1903V6.45H20.2897V5.375Z" fill="#FAFFFF"/>
<path d="M21.3892 5.375H20.2898V6.45H21.3892V5.375Z" fill="#FAFFFF"/>
<path d="M22.4886 5.375H21.3892V6.45H22.4886V5.375Z" fill="#FAFFFF"/>
<path d="M23.5881 5.375H22.4886V6.45H23.5881V5.375Z" fill="#0F022E"/>
<path d="M24.6874 5.375H23.588V6.45H24.6874V5.375Z" fill="#0F022E"/>
<path d="M25.7869 5.375H24.6875V6.45H25.7869V5.375Z" fill="#0F022E"/>
<path d="M26.8864 5.375H25.787V6.45H26.8864V5.375Z" fill="#0F022E"/>
<path d="M10.3948 6.44995H9.29541V7.52495H10.3948V6.44995Z" fill="#0F022E"/>
<path d="M11.4943 6.44995H10.3949V7.52495H11.4943V6.44995Z" fill="#0F022E"/>
<path d="M12.5937 6.44995H11.4943V7.52495H12.5937V6.44995Z" fill="#0F022E"/>
<path d="M13.6932 6.44995H12.5938V7.52495H13.6932V6.44995Z" fill="#0F022E"/>
<path d="M14.7927 6.44995H13.6932V7.52495H14.7927V6.44995Z" fill="#FAFFFF"/>
<path d="M15.892 6.44995H14.7926V7.52495H15.892V6.44995Z" fill="#FAFFFF"/>
<path d="M16.9915 6.44995H15.8921V7.52495H16.9915V6.44995Z" fill="#FAFFFF"/>
<path d="M18.0909 6.44995H16.9915V7.52495H18.0909V6.44995Z" fill="#FAFFFF"/>
<path d="M19.1904 6.44995H18.0909V7.52495H19.1904V6.44995Z" fill="#FAFFFF"/>
<path d="M20.2897 6.44995H19.1903V7.52495H20.2897V6.44995Z" fill="#FAFFFF"/>
<path d="M21.3892 6.44995H20.2898V7.52495H21.3892V6.44995Z" fill="#FAFFFF"/>
<path d="M22.4886 6.44995H21.3892V7.52495H22.4886V6.44995Z" fill="#FAFFFF"/>
<path d="M23.5881 6.44995H22.4886V7.52495H23.5881V6.44995Z" fill="#0F022E"/>
<path d="M24.6874 6.44995H23.588V7.52495H24.6874V6.44995Z" fill="#0F022E"/>
<path d="M25.7869 6.44995H24.6875V7.52495H25.7869V6.44995Z" fill="#0F022E"/>
<path d="M26.8864 6.44995H25.787V7.52495H26.8864V6.44995Z" fill="#0F022E"/>
<path d="M10.3948 7.5249H9.29541V8.5999H10.3948V7.5249Z" fill="#0F022E"/>
<path d="M11.4943 7.5249H10.3949V8.5999H11.4943V7.5249Z" fill="#0F022E"/>
<path d="M12.5937 7.5249H11.4943V8.5999H12.5937V7.5249Z" fill="#0F022E"/>
<path d="M13.6932 7.5249H12.5938V8.5999H13.6932V7.5249Z" fill="#0F022E"/>
<path d="M14.7927 7.5249H13.6932V8.5999H14.7927V7.5249Z" fill="#FAFFFF"/>
<path d="M15.892 7.5249H14.7926V8.5999H15.892V7.5249Z" fill="#FAFFFF"/>
<path d="M16.9915 7.5249H15.8921V8.5999H16.9915V7.5249Z" fill="#FAFFFF"/>
<path d="M18.0909 7.5249H16.9915V8.5999H18.0909V7.5249Z" fill="#FAFFFF"/>
<path d="M19.1904 7.5249H18.0909V8.5999H19.1904V7.5249Z" fill="#FAFFFF"/>
<path d="M20.2897 7.5249H19.1903V8.5999H20.2897V7.5249Z" fill="#FAFFFF"/>
<path d="M21.3892 7.5249H20.2898V8.5999H21.3892V7.5249Z" fill="#FAFFFF"/>
<path d="M22.4886 7.5249H21.3892V8.5999H22.4886V7.5249Z" fill="#FAFFFF"/>
<path d="M23.5881 7.5249H22.4886V8.5999H23.5881V7.5249Z" fill="#0F022E"/>
<path d="M24.6874 7.5249H23.588V8.5999H24.6874V7.5249Z" fill="#0F022E"/>
<path d="M25.7869 7.5249H24.6875V8.5999H25.7869V7.5249Z" fill="#0F022E"/>
<path d="M26.8864 7.5249H25.787V8.5999H26.8864V7.5249Z" fill="#0F022E"/>
<path d="M5.99714 8.6001H4.89771V9.6751H5.99714V8.6001Z" fill="#0F022E"/>
<path d="M7.09662 8.6001H5.99719V9.6751H7.09662V8.6001Z" fill="#0F022E"/>
<path d="M8.19599 8.6001H7.09656V9.6751H8.19599V8.6001Z" fill="#0F022E"/>
<path d="M9.29548 8.6001H8.19604V9.6751H9.29548V8.6001Z" fill="#0F022E"/>
<path d="M10.3948 8.6001H9.29541V9.6751H10.3948V8.6001Z" fill="#FAFFFF"/>
<path d="M11.4943 8.6001H10.3949V9.6751H11.4943V8.6001Z" fill="#FAFFFF"/>
<path d="M12.5937 8.6001H11.4943V9.6751H12.5937V8.6001Z" fill="#FAFFFF"/>
<path d="M13.6932 8.6001H12.5938V9.6751H13.6932V8.6001Z" fill="#FAFFFF"/>
<path d="M14.7927 8.6001H13.6932V9.6751H14.7927V8.6001Z" fill="#7A399D"/>
<path d="M15.892 8.6001H14.7926V9.6751H15.892V8.6001Z" fill="#7A399D"/>
<path d="M16.9915 8.6001H15.8921V9.6751H16.9915V8.6001Z" fill="#7A399D"/>
<path d="M18.0909 8.6001H16.9915V9.6751H18.0909V8.6001Z" fill="#7A399D"/>
<path d="M19.1904 8.6001H18.0909V9.6751H19.1904V8.6001Z" fill="#7A399D"/>
<path d="M20.2897 8.6001H19.1903V9.6751H20.2897V8.6001Z" fill="#7A399D"/>
<path d="M21.3892 8.6001H20.2898V9.6751H21.3892V8.6001Z" fill="#7A399D"/>
<path d="M22.4886 8.6001H21.3892V9.6751H22.4886V8.6001Z" fill="#7A399D"/>
<path d="M23.5881 8.6001H22.4886V9.6751H23.5881V8.6001Z" fill="#FAFFFF"/>
<path d="M24.6874 8.6001H23.588V9.6751H24.6874V8.6001Z" fill="#FAFFFF"/>
<path d="M25.7869 8.6001H24.6875V9.6751H25.7869V8.6001Z" fill="#FAFFFF"/>
<path d="M26.8864 8.6001H25.787V9.6751H26.8864V8.6001Z" fill="#FAFFFF"/>
<path d="M27.9858 8.6001H26.8864V9.6751H27.9858V8.6001Z" fill="#0F022E"/>
<path d="M29.0853 8.6001H27.9858V9.6751H29.0853V8.6001Z" fill="#0F022E"/>
<path d="M30.1846 8.6001H29.0852V9.6751H30.1846V8.6001Z" fill="#0F022E"/>
<path d="M31.2841 8.6001H30.1847V9.6751H31.2841V8.6001Z" fill="#0F022E"/>
<path d="M5.99714 9.67505H4.89771V10.75H5.99714V9.67505Z" fill="#0F022E"/>
<path d="M7.09662 9.67505H5.99719V10.75H7.09662V9.67505Z" fill="#0F022E"/>
<path d="M8.19599 9.67505H7.09656V10.75H8.19599V9.67505Z" fill="#0F022E"/>
<path d="M9.29548 9.67505H8.19604V10.75H9.29548V9.67505Z" fill="#0F022E"/>
<path d="M10.3948 9.67505H9.29541V10.75H10.3948V9.67505Z" fill="#FAFFFF"/>
<path d="M11.4943 9.67505H10.3949V10.75H11.4943V9.67505Z" fill="#FAFFFF"/>
<path d="M12.5937 9.67505H11.4943V10.75H12.5937V9.67505Z" fill="#FAFFFF"/>
<path d="M13.6932 9.67505H12.5938V10.75H13.6932V9.67505Z" fill="#FAFFFF"/>
<path d="M14.7927 9.67505H13.6932V10.75H14.7927V9.67505Z" fill="#7A399D"/>
<path d="M15.892 9.67505H14.7926V10.75H15.892V9.67505Z" fill="#7A399D"/>
<path d="M16.9915 9.67505H15.8921V10.75H16.9915V9.67505Z" fill="#7A399D"/>
<path d="M18.0909 9.67505H16.9915V10.75H18.0909V9.67505Z" fill="#7A399D"/>
<path d="M19.1904 9.67505H18.0909V10.75H19.1904V9.67505Z" fill="#7A399D"/>
<path d="M20.2897 9.67505H19.1903V10.75H20.2897V9.67505Z" fill="#7A399D"/>
<path d="M21.3892 9.67505H20.2898V10.75H21.3892V9.67505Z" fill="#7A399D"/>
<path d="M22.4886 9.67505H21.3892V10.75H22.4886V9.67505Z" fill="#7A399D"/>
<path d="M23.5881 9.67505H22.4886V10.75H23.5881V9.67505Z" fill="#FAFFFF"/>
<path d="M24.6874 9.67505H23.588V10.75H24.6874V9.67505Z" fill="#FAFFFF"/>
<path d="M25.7869 9.67505H24.6875V10.75H25.7869V9.67505Z" fill="#FAFFFF"/>
<path d="M26.8864 9.67505H25.787V10.75H26.8864V9.67505Z" fill="#FAFFFF"/>
<path d="M27.9858 9.67505H26.8864V10.75H27.9858V9.67505Z" fill="#0F022E"/>
<path d="M29.0853 9.67505H27.9858V10.75H29.0853V9.67505Z" fill="#0F022E"/>
<path d="M30.1846 9.67505H29.0852V10.75H30.1846V9.67505Z" fill="#0F022E"/>
<path d="M31.2841 9.67505H30.1847V10.75H31.2841V9.67505Z" fill="#0F022E"/>
<path d="M5.99714 10.75H4.89771V11.825H5.99714V10.75Z" fill="#0F022E"/>
<path d="M7.09662 10.75H5.99719V11.825H7.09662V10.75Z" fill="#0F022E"/>
<path d="M8.19599 10.75H7.09656V11.825H8.19599V10.75Z" fill="#0F022E"/>
<path d="M9.29548 10.75H8.19604V11.825H9.29548V10.75Z" fill="#0F022E"/>
<path d="M10.3948 10.75H9.29541V11.825H10.3948V10.75Z" fill="#FAFFFF"/>
<path d="M11.4943 10.75H10.3949V11.825H11.4943V10.75Z" fill="#FAFFFF"/>
<path d="M12.5937 10.75H11.4943V11.825H12.5937V10.75Z" fill="#FAFFFF"/>
<path d="M13.6932 10.75H12.5938V11.825H13.6932V10.75Z" fill="#FAFFFF"/>
<path d="M14.7927 10.75H13.6932V11.825H14.7927V10.75Z" fill="#7A399D"/>
<path d="M15.892 10.75H14.7926V11.825H15.892V10.75Z" fill="#7A399D"/>
<path d="M16.9915 10.75H15.8921V11.825H16.9915V10.75Z" fill="#7A399D"/>
<path d="M18.0909 10.75H16.9915V11.825H18.0909V10.75Z" fill="#7A399D"/>
<path d="M19.1904 10.75H18.0909V11.825H19.1904V10.75Z" fill="#7A399D"/>
<path d="M20.2897 10.75H19.1903V11.825H20.2897V10.75Z" fill="#7A399D"/>
<path d="M21.3892 10.75H20.2898V11.825H21.3892V10.75Z" fill="#7A399D"/>
<path d="M22.4886 10.75H21.3892V11.825H22.4886V10.75Z" fill="#7A399D"/>
<path d="M23.5881 10.75H22.4886V11.825H23.5881V10.75Z" fill="#FAFFFF"/>
<path d="M24.6874 10.75H23.588V11.825H24.6874V10.75Z" fill="#FAFFFF"/>
<path d="M25.7869 10.75H24.6875V11.825H25.7869V10.75Z" fill="#FAFFFF"/>
<path d="M26.8864 10.75H25.787V11.825H26.8864V10.75Z" fill="#FAFFFF"/>
<path d="M27.9858 10.75H26.8864V11.825H27.9858V10.75Z" fill="#0F022E"/>
<path d="M29.0853 10.75H27.9858V11.825H29.0853V10.75Z" fill="#0F022E"/>
<path d="M30.1846 10.75H29.0852V11.825H30.1846V10.75Z" fill="#0F022E"/>
<path d="M31.2841 10.75H30.1847V11.825H31.2841V10.75Z" fill="#0F022E"/>
<path d="M5.99714 11.825H4.89771V12.9H5.99714V11.825Z" fill="#0F022E"/>
<path d="M7.09662 11.825H5.99719V12.9H7.09662V11.825Z" fill="#0F022E"/>
<path d="M8.19599 11.825H7.09656V12.9H8.19599V11.825Z" fill="#0F022E"/>
<path d="M9.29548 11.825H8.19604V12.9H9.29548V11.825Z" fill="#0F022E"/>
<path d="M10.3948 11.825H9.29541V12.9H10.3948V11.825Z" fill="#FAFFFF"/>
<path d="M11.4943 11.825H10.3949V12.9H11.4943V11.825Z" fill="#FAFFFF"/>
<path d="M12.5937 11.825H11.4943V12.9H12.5937V11.825Z" fill="#FAFFFF"/>
<path d="M13.6932 11.825H12.5938V12.9H13.6932V11.825Z" fill="#FAFFFF"/>
<path d="M14.7927 11.825H13.6932V12.9H14.7927V11.825Z" fill="#7A399D"/>
<path d="M15.892 11.825H14.7926V12.9H15.892V11.825Z" fill="#7A399D"/>
<path d="M16.9915 11.825H15.8921V12.9H16.9915V11.825Z" fill="#7A399D"/>
<path d="M18.0909 11.825H16.9915V12.9H18.0909V11.825Z" fill="#7A399D"/>
<path d="M19.1904 11.825H18.0909V12.9H19.1904V11.825Z" fill="#7A399D"/>
<path d="M20.2897 11.825H19.1903V12.9H20.2897V11.825Z" fill="#7A399D"/>
<path d="M21.3892 11.825H20.2898V12.9H21.3892V11.825Z" fill="#7A399D"/>
<path d="M22.4886 11.825H21.3892V12.9H22.4886V11.825Z" fill="#7A399D"/>
<path d="M23.5881 11.825H22.4886V12.9H23.5881V11.825Z" fill="#FAFFFF"/>
<path d="M24.6874 11.825H23.588V12.9H24.6874V11.825Z" fill="#FAFFFF"/>
<path d="M25.7869 11.825H24.6875V12.9H25.7869V11.825Z" fill="#FAFFFF"/>
<path d="M26.8864 11.825H25.787V12.9H26.8864V11.825Z" fill="#FAFFFF"/>
<path d="M27.9858 11.825H26.8864V12.9H27.9858V11.825Z" fill="#0F022E"/>
<path d="M29.0853 11.825H27.9858V12.9H29.0853V11.825Z" fill="#0F022E"/>
<path d="M30.1846 11.825H29.0852V12.9H30.1846V11.825Z" fill="#0F022E"/>
<path d="M31.2841 11.825H30.1847V12.9H31.2841V11.825Z" fill="#0F022E"/>
<path d="M5.99714 12.8999H4.89771V13.9749H5.99714V12.8999Z" fill="#0F022E"/>
<path d="M7.09662 12.8999H5.99719V13.9749H7.09662V12.8999Z" fill="#0F022E"/>
<path d="M8.19599 12.8999H7.09656V13.9749H8.19599V12.8999Z" fill="#0F022E"/>
<path d="M9.29548 12.8999H8.19604V13.9749H9.29548V12.8999Z" fill="#0F022E"/>
<path d="M10.3948 12.8999H9.29541V13.9749H10.3948V12.8999Z" fill="#FAFFFF"/>
<path d="M11.4943 12.8999H10.3949V13.9749H11.4943V12.8999Z" fill="#FAFFFF"/>
<path d="M12.5937 12.8999H11.4943V13.9749H12.5937V12.8999Z" fill="#FAFFFF"/>
<path d="M13.6932 12.8999H12.5938V13.9749H13.6932V12.8999Z" fill="#FAFFFF"/>
<path d="M14.7927 12.8999H13.6932V13.9749H14.7927V12.8999Z" fill="#7A399D"/>
<path d="M15.892 12.8999H14.7926V13.9749H15.892V12.8999Z" fill="#7A399D"/>
<path d="M16.9915 12.8999H15.8921V13.9749H16.9915V12.8999Z" fill="#7A399D"/>
<path d="M18.0909 12.8999H16.9915V13.9749H18.0909V12.8999Z" fill="#7A399D"/>
<path d="M19.1904 12.8999H18.0909V13.9749H19.1904V12.8999Z" fill="#7A399D"/>
<path d="M20.2897 12.8999H19.1903V13.9749H20.2897V12.8999Z" fill="#7A399D"/>
<path d="M21.3892 12.8999H20.2898V13.9749H21.3892V12.8999Z" fill="#7A399D"/>
<path d="M22.4886 12.8999H21.3892V13.9749H22.4886V12.8999Z" fill="#7A399D"/>
<path d="M23.5881 12.8999H22.4886V13.9749H23.5881V12.8999Z" fill="#FAFFFF"/>
<path d="M24.6874 12.8999H23.588V13.9749H24.6874V12.8999Z" fill="#FAFFFF"/>
<path d="M25.7869 12.8999H24.6875V13.9749H25.7869V12.8999Z" fill="#FAFFFF"/>
<path d="M26.8864 12.8999H25.787V13.9749H26.8864V12.8999Z" fill="#FAFFFF"/>
<path d="M27.9858 12.8999H26.8864V13.9749H27.9858V12.8999Z" fill="#0F022E"/>
<path d="M29.0853 12.8999H27.9858V13.9749H29.0853V12.8999Z" fill="#0F022E"/>
<path d="M30.1846 12.8999H29.0852V13.9749H30.1846V12.8999Z" fill="#0F022E"/>
<path d="M31.2841 12.8999H30.1847V13.9749H31.2841V12.8999Z" fill="#0F022E"/>
<path d="M5.99714 13.9751H4.89771V15.0501H5.99714V13.9751Z" fill="#0F022E"/>
<path d="M7.09662 13.9751H5.99719V15.0501H7.09662V13.9751Z" fill="#0F022E"/>
<path d="M8.19599 13.9751H7.09656V15.0501H8.19599V13.9751Z" fill="#0F022E"/>
<path d="M9.29548 13.9751H8.19604V15.0501H9.29548V13.9751Z" fill="#0F022E"/>
<path d="M10.3948 13.9751H9.29541V15.0501H10.3948V13.9751Z" fill="#FAFFFF"/>
<path d="M11.4943 13.9751H10.3949V15.0501H11.4943V13.9751Z" fill="#FAFFFF"/>
<path d="M12.5937 13.9751H11.4943V15.0501H12.5937V13.9751Z" fill="#FAFFFF"/>
<path d="M13.6932 13.9751H12.5938V15.0501H13.6932V13.9751Z" fill="#FAFFFF"/>
<path d="M14.7927 13.9751H13.6932V15.0501H14.7927V13.9751Z" fill="#7A399D"/>
<path d="M15.892 13.9751H14.7926V15.0501H15.892V13.9751Z" fill="#7A399D"/>
<path d="M16.9915 13.9751H15.8921V15.0501H16.9915V13.9751Z" fill="#7A399D"/>
<path d="M18.0909 13.9751H16.9915V15.0501H18.0909V13.9751Z" fill="#7A399D"/>
<path d="M19.1904 13.9751H18.0909V15.0501H19.1904V13.9751Z" fill="#7A399D"/>
<path d="M20.2897 13.9751H19.1903V15.0501H20.2897V13.9751Z" fill="#7A399D"/>
<path d="M21.3892 13.9751H20.2898V15.0501H21.3892V13.9751Z" fill="#7A399D"/>
<path d="M22.4886 13.9751H21.3892V15.0501H22.4886V13.9751Z" fill="#7A399D"/>
<path d="M23.5881 13.9751H22.4886V15.0501H23.5881V13.9751Z" fill="#FAFFFF"/>
<path d="M24.6874 13.9751H23.588V15.0501H24.6874V13.9751Z" fill="#FAFFFF"/>
<path d="M25.7869 13.9751H24.6875V15.0501H25.7869V13.9751Z" fill="#FAFFFF"/>
<path d="M26.8864 13.9751H25.787V15.0501H26.8864V13.9751Z" fill="#FAFFFF"/>
<path d="M27.9858 13.9751H26.8864V15.0501H27.9858V13.9751Z" fill="#0F022E"/>
<path d="M29.0853 13.9751H27.9858V15.0501H29.0853V13.9751Z" fill="#0F022E"/>
<path d="M30.1846 13.9751H29.0852V15.0501H30.1846V13.9751Z" fill="#0F022E"/>
<path d="M31.2841 13.9751H30.1847V15.0501H31.2841V13.9751Z" fill="#0F022E"/>
<path d="M5.99714 15.05H4.89771V16.125H5.99714V15.05Z" fill="#0F022E"/>
<path d="M7.09662 15.05H5.99719V16.125H7.09662V15.05Z" fill="#0F022E"/>
<path d="M8.19599 15.05H7.09656V16.125H8.19599V15.05Z" fill="#0F022E"/>
<path d="M9.29548 15.05H8.19604V16.125H9.29548V15.05Z" fill="#0F022E"/>
<path d="M10.3948 15.05H9.29541V16.125H10.3948V15.05Z" fill="#FAFFFF"/>
<path d="M11.4943 15.05H10.3949V16.125H11.4943V15.05Z" fill="#FAFFFF"/>
<path d="M12.5937 15.05H11.4943V16.125H12.5937V15.05Z" fill="#FAFFFF"/>
<path d="M13.6932 15.05H12.5938V16.125H13.6932V15.05Z" fill="#FAFFFF"/>
<path d="M14.7927 15.05H13.6932V16.125H14.7927V15.05Z" fill="#7A399D"/>
<path d="M15.892 15.05H14.7926V16.125H15.892V15.05Z" fill="#7A399D"/>
<path d="M16.9915 15.05H15.8921V16.125H16.9915V15.05Z" fill="#7A399D"/>
<path d="M18.0909 15.05H16.9915V16.125H18.0909V15.05Z" fill="#7A399D"/>
<path d="M19.1904 15.05H18.0909V16.125H19.1904V15.05Z" fill="#7A399D"/>
<path d="M20.2897 15.05H19.1903V16.125H20.2897V15.05Z" fill="#7A399D"/>
<path d="M21.3892 15.05H20.2898V16.125H21.3892V15.05Z" fill="#7A399D"/>
<path d="M22.4886 15.05H21.3892V16.125H22.4886V15.05Z" fill="#7A399D"/>
<path d="M23.5881 15.05H22.4886V16.125H23.5881V15.05Z" fill="#FAFFFF"/>
<path d="M24.6874 15.05H23.588V16.125H24.6874V15.05Z" fill="#FAFFFF"/>
<path d="M25.7869 15.05H24.6875V16.125H25.7869V15.05Z" fill="#FAFFFF"/>
<path d="M26.8864 15.05H25.787V16.125H26.8864V15.05Z" fill="#FAFFFF"/>
<path d="M27.9858 15.05H26.8864V16.125H27.9858V15.05Z" fill="#0F022E"/>
<path d="M29.0853 15.05H27.9858V16.125H29.0853V15.05Z" fill="#0F022E"/>
<path d="M30.1846 15.05H29.0852V16.125H30.1846V15.05Z" fill="#0F022E"/>
<path d="M31.2841 15.05H30.1847V16.125H31.2841V15.05Z" fill="#0F022E"/>
<path d="M5.99714 16.125H4.89771V17.2H5.99714V16.125Z" fill="#0F022E"/>
<path d="M7.09662 16.125H5.99719V17.2H7.09662V16.125Z" fill="#0F022E"/>
<path d="M8.19599 16.125H7.09656V17.2H8.19599V16.125Z" fill="#0F022E"/>
<path d="M9.29548 16.125H8.19604V17.2H9.29548V16.125Z" fill="#0F022E"/>
<path d="M10.3948 16.125H9.29541V17.2H10.3948V16.125Z" fill="#FAFFFF"/>
<path d="M11.4943 16.125H10.3949V17.2H11.4943V16.125Z" fill="#FAFFFF"/>
<path d="M12.5937 16.125H11.4943V17.2H12.5937V16.125Z" fill="#FAFFFF"/>
<path d="M13.6932 16.125H12.5938V17.2H13.6932V16.125Z" fill="#FAFFFF"/>
<path d="M14.7927 16.125H13.6932V17.2H14.7927V16.125Z" fill="#7A399D"/>
<path d="M15.892 16.125H14.7926V17.2H15.892V16.125Z" fill="#7A399D"/>
<path d="M16.9915 16.125H15.8921V17.2H16.9915V16.125Z" fill="#7A399D"/>
<path d="M18.0909 16.125H16.9915V17.2H18.0909V16.125Z" fill="#7A399D"/>
<path d="M19.1904 16.125H18.0909V17.2H19.1904V16.125Z" fill="#7A399D"/>
<path d="M20.2897 16.125H19.1903V17.2H20.2897V16.125Z" fill="#7A399D"/>
<path d="M21.3892 16.125H20.2898V17.2H21.3892V16.125Z" fill="#7A399D"/>
<path d="M22.4886 16.125H21.3892V17.2H22.4886V16.125Z" fill="#7A399D"/>
<path d="M23.5881 16.125H22.4886V17.2H23.5881V16.125Z" fill="#FAFFFF"/>
<path d="M24.6874 16.125H23.588V17.2H24.6874V16.125Z" fill="#FAFFFF"/>
<path d="M25.7869 16.125H24.6875V17.2H25.7869V16.125Z" fill="#FAFFFF"/>
<path d="M26.8864 16.125H25.787V17.2H26.8864V16.125Z" fill="#FAFFFF"/>
<path d="M27.9858 16.125H26.8864V17.2H27.9858V16.125Z" fill="#0F022E"/>
<path d="M29.0853 16.125H27.9858V17.2H29.0853V16.125Z" fill="#0F022E"/>
<path d="M30.1846 16.125H29.0852V17.2H30.1846V16.125Z" fill="#0F022E"/>
<path d="M31.2841 16.125H30.1847V17.2H31.2841V16.125Z" fill="#0F022E"/>
<path d="M1.59943 17.2H0.5V18.275H1.59943V17.2Z" fill="#0F022E"/>
<path d="M2.69892 17.2H1.59949V18.275H2.69892V17.2Z" fill="#0F022E"/>
<path d="M3.79828 17.2H2.69885V18.275H3.79828V17.2Z" fill="#0F022E"/>
<path d="M4.89777 17.2H3.79834V18.275H4.89777V17.2Z" fill="#0F022E"/>
<path d="M5.99714 17.2H4.89771V18.275H5.99714V17.2Z" fill="#FAFFFF"/>
<path d="M7.09662 17.2H5.99719V18.275H7.09662V17.2Z" fill="#FAFFFF"/>
<path d="M8.19599 17.2H7.09656V18.275H8.19599V17.2Z" fill="#FAFFFF"/>
<path d="M9.29548 17.2H8.19604V18.275H9.29548V17.2Z" fill="#FAFFFF"/>
<path d="M10.3948 17.2H9.29541V18.275H10.3948V17.2Z" fill="#FAFFFF"/>
<path d="M11.4943 17.2H10.3949V18.275H11.4943V17.2Z" fill="#FAFFFF"/>
<path d="M12.5937 17.2H11.4943V18.275H12.5937V17.2Z" fill="#FAFFFF"/>
<path d="M13.6932 17.2H12.5938V18.275H13.6932V17.2Z" fill="#FAFFFF"/>
<path d="M14.7927 17.2H13.6932V18.275H14.7927V17.2Z" fill="#FAFFFF"/>
<path d="M15.892 17.2H14.7926V18.275H15.892V17.2Z" fill="#FAFFFF"/>
<path d="M16.9915 17.2H15.8921V18.275H16.9915V17.2Z" fill="#FAFFFF"/>
<path d="M18.0909 17.2H16.9915V18.275H18.0909V17.2Z" fill="#FAFFFF"/>
<path d="M19.1904 17.2H18.0909V18.275H19.1904V17.2Z" fill="#FAFFFF"/>
<path d="M20.2897 17.2H19.1903V18.275H20.2897V17.2Z" fill="#FAFFFF"/>
<path d="M21.3892 17.2H20.2898V18.275H21.3892V17.2Z" fill="#FAFFFF"/>
<path d="M22.4886 17.2H21.3892V18.275H22.4886V17.2Z" fill="#FAFFFF"/>
<path d="M23.5881 17.2H22.4886V18.275H23.5881V17.2Z" fill="#FAFFFF"/>
<path d="M24.6874 17.2H23.588V18.275H24.6874V17.2Z" fill="#FAFFFF"/>
<path d="M25.7869 17.2H24.6875V18.275H25.7869V17.2Z" fill="#FAFFFF"/>
<path d="M26.8864 17.2H25.787V18.275H26.8864V17.2Z" fill="#FAFFFF"/>
<path d="M27.9858 17.2H26.8864V18.275H27.9858V17.2Z" fill="#FAFFFF"/>
<path d="M29.0853 17.2H27.9858V18.275H29.0853V17.2Z" fill="#FAFFFF"/>
<path d="M30.1846 17.2H29.0852V18.275H30.1846V17.2Z" fill="#FAFFFF"/>
<path d="M31.2841 17.2H30.1847V18.275H31.2841V17.2Z" fill="#FAFFFF"/>
<path d="M32.3835 17.2H31.2841V18.275H32.3835V17.2Z" fill="#0F022E"/>
<path d="M33.483 17.2H32.3835V18.275H33.483V17.2Z" fill="#0F022E"/>
<path d="M34.5823 17.2H33.4829V18.275H34.5823V17.2Z" fill="#0F022E"/>
<path d="M35.6818 17.2H34.5824V18.275H35.6818V17.2Z" fill="#0F022E"/>
<path d="M1.59943 18.2749H0.5V19.3499H1.59943V18.2749Z" fill="#0F022E"/>
<path d="M2.69892 18.2749H1.59949V19.3499H2.69892V18.2749Z" fill="#0F022E"/>
<path d="M3.79828 18.2749H2.69885V19.3499H3.79828V18.2749Z" fill="#0F022E"/>
<path d="M4.89777 18.2749H3.79834V19.3499H4.89777V18.2749Z" fill="#0F022E"/>
<path d="M5.99714 18.2749H4.89771V19.3499H5.99714V18.2749Z" fill="#FAFFFF"/>
<path d="M7.09662 18.2749H5.99719V19.3499H7.09662V18.2749Z" fill="#FAFFFF"/>
<path d="M8.19599 18.2749H7.09656V19.3499H8.19599V18.2749Z" fill="#FAFFFF"/>
<path d="M9.29548 18.2749H8.19604V19.3499H9.29548V18.2749Z" fill="#FAFFFF"/>
<path d="M10.3948 18.2749H9.29541V19.3499H10.3948V18.2749Z" fill="#FAFFFF"/>
<path d="M11.4943 18.2749H10.3949V19.3499H11.4943V18.2749Z" fill="#FAFFFF"/>
<path d="M12.5937 18.2749H11.4943V19.3499H12.5937V18.2749Z" fill="#FAFFFF"/>
<path d="M13.6932 18.2749H12.5938V19.3499H13.6932V18.2749Z" fill="#FAFFFF"/>
<path d="M14.7927 18.2749H13.6932V19.3499H14.7927V18.2749Z" fill="#FAFFFF"/>
<path d="M15.892 18.2749H14.7926V19.3499H15.892V18.2749Z" fill="#FAFFFF"/>
<path d="M16.9915 18.2749H15.8921V19.3499H16.9915V18.2749Z" fill="#FAFFFF"/>
<path d="M18.0909 18.2749H16.9915V19.3499H18.0909V18.2749Z" fill="#FAFFFF"/>
<path d="M19.1904 18.2749H18.0909V19.3499H19.1904V18.2749Z" fill="#FAFFFF"/>
<path d="M20.2897 18.2749H19.1903V19.3499H20.2897V18.2749Z" fill="#FAFFFF"/>
<path d="M21.3892 18.2749H20.2898V19.3499H21.3892V18.2749Z" fill="#FAFFFF"/>
<path d="M22.4886 18.2749H21.3892V19.3499H22.4886V18.2749Z" fill="#FAFFFF"/>
<path d="M23.5881 18.2749H22.4886V19.3499H23.5881V18.2749Z" fill="#FAFFFF"/>
<path d="M24.6874 18.2749H23.588V19.3499H24.6874V18.2749Z" fill="#FAFFFF"/>
<path d="M25.7869 18.2749H24.6875V19.3499H25.7869V18.2749Z" fill="#FAFFFF"/>
<path d="M26.8864 18.2749H25.787V19.3499H26.8864V18.2749Z" fill="#FAFFFF"/>
<path d="M27.9858 18.2749H26.8864V19.3499H27.9858V18.2749Z" fill="#FAFFFF"/>
<path d="M29.0853 18.2749H27.9858V19.3499H29.0853V18.2749Z" fill="#FAFFFF"/>
<path d="M30.1846 18.2749H29.0852V19.3499H30.1846V18.2749Z" fill="#FAFFFF"/>
<path d="M31.2841 18.2749H30.1847V19.3499H31.2841V18.2749Z" fill="#FAFFFF"/>
<path d="M32.3835 18.2749H31.2841V19.3499H32.3835V18.2749Z" fill="#0F022E"/>
<path d="M33.483 18.2749H32.3835V19.3499H33.483V18.2749Z" fill="#0F022E"/>
<path d="M34.5823 18.2749H33.4829V19.3499H34.5823V18.2749Z" fill="#0F022E"/>
<path d="M35.6818 18.2749H34.5824V19.3499H35.6818V18.2749Z" fill="#0F022E"/>
<path d="M1.59943 19.3501H0.5V20.4251H1.59943V19.3501Z" fill="#0F022E"/>
<path d="M2.69892 19.3501H1.59949V20.4251H2.69892V19.3501Z" fill="#0F022E"/>
<path d="M3.79828 19.3501H2.69885V20.4251H3.79828V19.3501Z" fill="#0F022E"/>
<path d="M4.89777 19.3501H3.79834V20.4251H4.89777V19.3501Z" fill="#0F022E"/>
<path d="M5.99714 19.3501H4.89771V20.4251H5.99714V19.3501Z" fill="#FAFFFF"/>
<path d="M7.09662 19.3501H5.99719V20.4251H7.09662V19.3501Z" fill="#FAFFFF"/>
<path d="M8.19599 19.3501H7.09656V20.4251H8.19599V19.3501Z" fill="#FAFFFF"/>
<path d="M9.29548 19.3501H8.19604V20.4251H9.29548V19.3501Z" fill="#FAFFFF"/>
<path d="M10.3948 19.3501H9.29541V20.4251H10.3948V19.3501Z" fill="#FAFFFF"/>
<path d="M11.4943 19.3501H10.3949V20.4251H11.4943V19.3501Z" fill="#FAFFFF"/>
<path d="M12.5937 19.3501H11.4943V20.4251H12.5937V19.3501Z" fill="#FAFFFF"/>
<path d="M13.6932 19.3501H12.5938V20.4251H13.6932V19.3501Z" fill="#FAFFFF"/>
<path d="M14.7927 19.3501H13.6932V20.4251H14.7927V19.3501Z" fill="#FAFFFF"/>
<path d="M15.892 19.3501H14.7926V20.4251H15.892V19.3501Z" fill="#FAFFFF"/>
<path d="M16.9915 19.3501H15.8921V20.4251H16.9915V19.3501Z" fill="#FAFFFF"/>
<path d="M18.0909 19.3501H16.9915V20.4251H18.0909V19.3501Z" fill="#FAFFFF"/>
<path d="M19.1904 19.3501H18.0909V20.4251H19.1904V19.3501Z" fill="#FAFFFF"/>
<path d="M20.2897 19.3501H19.1903V20.4251H20.2897V19.3501Z" fill="#FAFFFF"/>
<path d="M21.3892 19.3501H20.2898V20.4251H21.3892V19.3501Z" fill="#FAFFFF"/>
<path d="M22.4886 19.3501H21.3892V20.4251H22.4886V19.3501Z" fill="#FAFFFF"/>
<path d="M23.5881 19.3501H22.4886V20.4251H23.5881V19.3501Z" fill="#FAFFFF"/>
<path d="M24.6874 19.3501H23.588V20.4251H24.6874V19.3501Z" fill="#FAFFFF"/>
<path d="M25.7869 19.3501H24.6875V20.4251H25.7869V19.3501Z" fill="#FAFFFF"/>
<path d="M26.8864 19.3501H25.787V20.4251H26.8864V19.3501Z" fill="#FAFFFF"/>
<path d="M27.9858 19.3501H26.8864V20.4251H27.9858V19.3501Z" fill="#FAFFFF"/>
<path d="M29.0853 19.3501H27.9858V20.4251H29.0853V19.3501Z" fill="#FAFFFF"/>
<path d="M30.1846 19.3501H29.0852V20.4251H30.1846V19.3501Z" fill="#FAFFFF"/>
<path d="M31.2841 19.3501H30.1847V20.4251H31.2841V19.3501Z" fill="#FAFFFF"/>
<path d="M32.3835 19.3501H31.2841V20.4251H32.3835V19.3501Z" fill="#0F022E"/>
<path d="M33.483 19.3501H32.3835V20.4251H33.483V19.3501Z" fill="#0F022E"/>
<path d="M34.5823 19.3501H33.4829V20.4251H34.5823V19.3501Z" fill="#0F022E"/>
<path d="M35.6818 19.3501H34.5824V20.4251H35.6818V19.3501Z" fill="#0F022E"/>
<path d="M1.59943 20.425H0.5V21.5H1.59943V20.425Z" fill="#0F022E"/>
<path d="M2.69892 20.425H1.59949V21.5H2.69892V20.425Z" fill="#0F022E"/>
<path d="M3.79828 20.425H2.69885V21.5H3.79828V20.425Z" fill="#0F022E"/>
<path d="M4.89777 20.425H3.79834V21.5H4.89777V20.425Z" fill="#0F022E"/>
<path d="M5.99714 20.425H4.89771V21.5H5.99714V20.425Z" fill="#FAFFFF"/>
<path d="M7.09662 20.425H5.99719V21.5H7.09662V20.425Z" fill="#FAFFFF"/>
<path d="M8.19599 20.425H7.09656V21.5H8.19599V20.425Z" fill="#FAFFFF"/>
<path d="M9.29548 20.425H8.19604V21.5H9.29548V20.425Z" fill="#FAFFFF"/>
<path d="M10.3948 20.425H9.29541V21.5H10.3948V20.425Z" fill="#FAFFFF"/>
<path d="M11.4943 20.425H10.3949V21.5H11.4943V20.425Z" fill="#FAFFFF"/>
<path d="M12.5937 20.425H11.4943V21.5H12.5937V20.425Z" fill="#FAFFFF"/>
<path d="M13.6932 20.425H12.5938V21.5H13.6932V20.425Z" fill="#FAFFFF"/>
<path d="M14.7927 20.425H13.6932V21.5H14.7927V20.425Z" fill="#FAFFFF"/>
<path d="M15.892 20.425H14.7926V21.5H15.892V20.425Z" fill="#FAFFFF"/>
<path d="M16.9915 20.425H15.8921V21.5H16.9915V20.425Z" fill="#FAFFFF"/>
<path d="M18.0909 20.425H16.9915V21.5H18.0909V20.425Z" fill="#FAFFFF"/>
<path d="M19.1904 20.425H18.0909V21.5H19.1904V20.425Z" fill="#FAFFFF"/>
<path d="M20.2897 20.425H19.1903V21.5H20.2897V20.425Z" fill="#FAFFFF"/>
<path d="M21.3892 20.425H20.2898V21.5H21.3892V20.425Z" fill="#FAFFFF"/>
<path d="M22.4886 20.425H21.3892V21.5H22.4886V20.425Z" fill="#FAFFFF"/>
<path d="M23.5881 20.425H22.4886V21.5H23.5881V20.425Z" fill="#FAFFFF"/>
<path d="M24.6874 20.425H23.588V21.5H24.6874V20.425Z" fill="#FAFFFF"/>
<path d="M25.7869 20.425H24.6875V21.5H25.7869V20.425Z" fill="#FAFFFF"/>
<path d="M26.8864 20.425H25.787V21.5H26.8864V20.425Z" fill="#FAFFFF"/>
<path d="M27.9858 20.425H26.8864V21.5H27.9858V20.425Z" fill="#FAFFFF"/>
<path d="M29.0853 20.425H27.9858V21.5H29.0853V20.425Z" fill="#FAFFFF"/>
<path d="M30.1846 20.425H29.0852V21.5H30.1846V20.425Z" fill="#FAFFFF"/>
<path d="M31.2841 20.425H30.1847V21.5H31.2841V20.425Z" fill="#FAFFFF"/>
<path d="M32.3835 20.425H31.2841V21.5H32.3835V20.425Z" fill="#0F022E"/>
<path d="M33.483 20.425H32.3835V21.5H33.483V20.425Z" fill="#0F022E"/>
<path d="M34.5823 20.425H33.4829V21.5H34.5823V20.425Z" fill="#0F022E"/>
<path d="M35.6818 20.425H34.5824V21.5H35.6818V20.425Z" fill="#0F022E"/>
<path d="M1.59943 21.5H0.5V22.575H1.59943V21.5Z" fill="#0F022E"/>
<path d="M2.69892 21.5H1.59949V22.575H2.69892V21.5Z" fill="#0F022E"/>
<path d="M3.79828 21.5H2.69885V22.575H3.79828V21.5Z" fill="#0F022E"/>
<path d="M4.89777 21.5H3.79834V22.575H4.89777V21.5Z" fill="#0F022E"/>
<path d="M5.99714 21.5H4.89771V22.575H5.99714V21.5Z" fill="#551E5C"/>
<path d="M7.09662 21.5H5.99719V22.575H7.09662V21.5Z" fill="#551E5C"/>
<path d="M8.19599 21.5H7.09656V22.575H8.19599V21.5Z" fill="#551E5C"/>
<path d="M9.29548 21.5H8.19604V22.575H9.29548V21.5Z" fill="#551E5C"/>
<path d="M10.3948 21.5H9.29541V22.575H10.3948V21.5Z" fill="#FAFFFF"/>
<path d="M11.4943 21.5H10.3949V22.575H11.4943V21.5Z" fill="#FAFFFF"/>
<path d="M12.5937 21.5H11.4943V22.575H12.5937V21.5Z" fill="#FAFFFF"/>
<path d="M13.6932 21.5H12.5938V22.575H13.6932V21.5Z" fill="#FAFFFF"/>
<path d="M14.7927 21.5H13.6932V22.575H14.7927V21.5Z" fill="#FAFFFF"/>
<path d="M15.892 21.5H14.7926V22.575H15.892V21.5Z" fill="#FAFFFF"/>
<path d="M16.9915 21.5H15.8921V22.575H16.9915V21.5Z" fill="#FAFFFF"/>
<path d="M18.0909 21.5H16.9915V22.575H18.0909V21.5Z" fill="#FAFFFF"/>
<path d="M19.1904 21.5H18.0909V22.575H19.1904V21.5Z" fill="#FAFFFF"/>
<path d="M20.2897 21.5H19.1903V22.575H20.2897V21.5Z" fill="#FAFFFF"/>
<path d="M21.3892 21.5H20.2898V22.575H21.3892V21.5Z" fill="#FAFFFF"/>
<path d="M22.4886 21.5H21.3892V22.575H22.4886V21.5Z" fill="#FAFFFF"/>
<path d="M23.5881 21.5H22.4886V22.575H23.5881V21.5Z" fill="#7A399D"/>
<path d="M24.6874 21.5H23.588V22.575H24.6874V21.5Z" fill="#7A399D"/>
<path d="M25.7869 21.5H24.6875V22.575H25.7869V21.5Z" fill="#7A399D"/>
<path d="M26.8864 21.5H25.787V22.575H26.8864V21.5Z" fill="#7A399D"/>
<path d="M27.9858 21.5H26.8864V22.575H27.9858V21.5Z" fill="#C7D4E1"/>
<path d="M29.0853 21.5H27.9858V22.575H29.0853V21.5Z" fill="#C7D4E1"/>
<path d="M30.1846 21.5H29.0852V22.575H30.1846V21.5Z" fill="#C7D4E1"/>
<path d="M31.2841 21.5H30.1847V22.575H31.2841V21.5Z" fill="#C7D4E1"/>
<path d="M32.3835 21.5H31.2841V22.575H32.3835V21.5Z" fill="#0F022E"/>
<path d="M33.483 21.5H32.3835V22.575H33.483V21.5Z" fill="#0F022E"/>
<path d="M34.5823 21.5H33.4829V22.575H34.5823V21.5Z" fill="#0F022E"/>
<path d="M35.6818 21.5H34.5824V22.575H35.6818V21.5Z" fill="#0F022E"/>
<path d="M1.59943 22.575H0.5V23.65H1.59943V22.575Z" fill="#0F022E"/>
<path d="M2.69892 22.575H1.59949V23.65H2.69892V22.575Z" fill="#0F022E"/>
<path d="M3.79828 22.575H2.69885V23.65H3.79828V22.575Z" fill="#0F022E"/>
<path d="M4.89777 22.575H3.79834V23.65H4.89777V22.575Z" fill="#0F022E"/>
<path d="M5.99714 22.575H4.89771V23.65H5.99714V22.575Z" fill="#551E5C"/>
<path d="M7.09662 22.575H5.99719V23.65H7.09662V22.575Z" fill="#551E5C"/>
<path d="M8.19599 22.575H7.09656V23.65H8.19599V22.575Z" fill="#551E5C"/>
<path d="M9.29548 22.575H8.19604V23.65H9.29548V22.575Z" fill="#551E5C"/>
<path d="M10.3948 22.575H9.29541V23.65H10.3948V22.575Z" fill="#FAFFFF"/>
<path d="M11.4943 22.575H10.3949V23.65H11.4943V22.575Z" fill="#FAFFFF"/>
<path d="M12.5937 22.575H11.4943V23.65H12.5937V22.575Z" fill="#FAFFFF"/>
<path d="M13.6932 22.575H12.5938V23.65H13.6932V22.575Z" fill="#FAFFFF"/>
<path d="M14.7927 22.575H13.6932V23.65H14.7927V22.575Z" fill="#FAFFFF"/>
<path d="M15.892 22.575H14.7926V23.65H15.892V22.575Z" fill="#FAFFFF"/>
<path d="M16.9915 22.575H15.8921V23.65H16.9915V22.575Z" fill="#FAFFFF"/>
<path d="M18.0909 22.575H16.9915V23.65H18.0909V22.575Z" fill="#FAFFFF"/>
<path d="M19.1904 22.575H18.0909V23.65H19.1904V22.575Z" fill="#FAFFFF"/>
<path d="M20.2897 22.575H19.1903V23.65H20.2897V22.575Z" fill="#FAFFFF"/>
<path d="M21.3892 22.575H20.2898V23.65H21.3892V22.575Z" fill="#FAFFFF"/>
<path d="M22.4886 22.575H21.3892V23.65H22.4886V22.575Z" fill="#FAFFFF"/>
<path d="M23.5881 22.575H22.4886V23.65H23.5881V22.575Z" fill="#7A399D"/>
<path d="M24.6874 22.575H23.588V23.65H24.6874V22.575Z" fill="#7A399D"/>
<path d="M25.7869 22.575H24.6875V23.65H25.7869V22.575Z" fill="#7A399D"/>
<path d="M26.8864 22.575H25.787V23.65H26.8864V22.575Z" fill="#7A399D"/>
<path d="M27.9858 22.575H26.8864V23.65H27.9858V22.575Z" fill="#C7D4E1"/>
<path d="M29.0853 22.575H27.9858V23.65H29.0853V22.575Z" fill="#C7D4E1"/>
<path d="M30.1846 22.575H29.0852V23.65H30.1846V22.575Z" fill="#C7D4E1"/>
<path d="M31.2841 22.575H30.1847V23.65H31.2841V22.575Z" fill="#C7D4E1"/>
<path d="M32.3835 22.575H31.2841V23.65H32.3835V22.575Z" fill="#0F022E"/>
<path d="M33.483 22.575H32.3835V23.65H33.483V22.575Z" fill="#0F022E"/>
<path d="M34.5823 22.575H33.4829V23.65H34.5823V22.575Z" fill="#0F022E"/>
<path d="M35.6818 22.575H34.5824V23.65H35.6818V22.575Z" fill="#0F022E"/>
<path d="M1.59943 23.6499H0.5V24.7249H1.59943V23.6499Z" fill="#0F022E"/>
<path d="M2.69892 23.6499H1.59949V24.7249H2.69892V23.6499Z" fill="#0F022E"/>
<path d="M3.79828 23.6499H2.69885V24.7249H3.79828V23.6499Z" fill="#0F022E"/>
<path d="M4.89777 23.6499H3.79834V24.7249H4.89777V23.6499Z" fill="#0F022E"/>
<path d="M5.99714 23.6499H4.89771V24.7249H5.99714V23.6499Z" fill="#551E5C"/>
<path d="M7.09662 23.6499H5.99719V24.7249H7.09662V23.6499Z" fill="#551E5C"/>
<path d="M8.19599 23.6499H7.09656V24.7249H8.19599V23.6499Z" fill="#551E5C"/>
<path d="M9.29548 23.6499H8.19604V24.7249H9.29548V23.6499Z" fill="#551E5C"/>
<path d="M10.3948 23.6499H9.29541V24.7249H10.3948V23.6499Z" fill="#FAFFFF"/>
<path d="M11.4943 23.6499H10.3949V24.7249H11.4943V23.6499Z" fill="#FAFFFF"/>
<path d="M12.5937 23.6499H11.4943V24.7249H12.5937V23.6499Z" fill="#FAFFFF"/>
<path d="M13.6932 23.6499H12.5938V24.7249H13.6932V23.6499Z" fill="#FAFFFF"/>
<path d="M14.7927 23.6499H13.6932V24.7249H14.7927V23.6499Z" fill="#FAFFFF"/>
<path d="M15.892 23.6499H14.7926V24.7249H15.892V23.6499Z" fill="#FAFFFF"/>
<path d="M16.9915 23.6499H15.8921V24.7249H16.9915V23.6499Z" fill="#FAFFFF"/>
<path d="M18.0909 23.6499H16.9915V24.7249H18.0909V23.6499Z" fill="#FAFFFF"/>
<path d="M19.1904 23.6499H18.0909V24.7249H19.1904V23.6499Z" fill="#FAFFFF"/>
<path d="M20.2897 23.6499H19.1903V24.7249H20.2897V23.6499Z" fill="#FAFFFF"/>
<path d="M21.3892 23.6499H20.2898V24.7249H21.3892V23.6499Z" fill="#FAFFFF"/>
<path d="M22.4886 23.6499H21.3892V24.7249H22.4886V23.6499Z" fill="#FAFFFF"/>
<path d="M23.5881 23.6499H22.4886V24.7249H23.5881V23.6499Z" fill="#7A399D"/>
<path d="M24.6874 23.6499H23.588V24.7249H24.6874V23.6499Z" fill="#7A399D"/>
<path d="M25.7869 23.6499H24.6875V24.7249H25.7869V23.6499Z" fill="#7A399D"/>
<path d="M26.8864 23.6499H25.787V24.7249H26.8864V23.6499Z" fill="#7A399D"/>
<path d="M27.9858 23.6499H26.8864V24.7249H27.9858V23.6499Z" fill="#C7D4E1"/>
<path d="M29.0853 23.6499H27.9858V24.7249H29.0853V23.6499Z" fill="#C7D4E1"/>
<path d="M30.1846 23.6499H29.0852V24.7249H30.1846V23.6499Z" fill="#C7D4E1"/>
<path d="M31.2841 23.6499H30.1847V24.7249H31.2841V23.6499Z" fill="#C7D4E1"/>
<path d="M32.3835 23.6499H31.2841V24.7249H32.3835V23.6499Z" fill="#0F022E"/>
<path d="M33.483 23.6499H32.3835V24.7249H33.483V23.6499Z" fill="#0F022E"/>
<path d="M34.5823 23.6499H33.4829V24.7249H34.5823V23.6499Z" fill="#0F022E"/>
<path d="M35.6818 23.6499H34.5824V24.7249H35.6818V23.6499Z" fill="#0F022E"/>
<path d="M1.59943 24.7251H0.5V25.8001H1.59943V24.7251Z" fill="#0F022E"/>
<path d="M2.69892 24.7251H1.59949V25.8001H2.69892V24.7251Z" fill="#0F022E"/>
<path d="M3.79828 24.7251H2.69885V25.8001H3.79828V24.7251Z" fill="#0F022E"/>
<path d="M4.89777 24.7251H3.79834V25.8001H4.89777V24.7251Z" fill="#0F022E"/>
<path d="M5.99714 24.7251H4.89771V25.8001H5.99714V24.7251Z" fill="#551E5C"/>
<path d="M7.09662 24.7251H5.99719V25.8001H7.09662V24.7251Z" fill="#551E5C"/>
<path d="M8.19599 24.7251H7.09656V25.8001H8.19599V24.7251Z" fill="#551E5C"/>
<path d="M9.29548 24.7251H8.19604V25.8001H9.29548V24.7251Z" fill="#551E5C"/>
<path d="M10.3948 24.7251H9.29541V25.8001H10.3948V24.7251Z" fill="#FAFFFF"/>
<path d="M11.4943 24.7251H10.3949V25.8001H11.4943V24.7251Z" fill="#FAFFFF"/>
<path d="M12.5937 24.7251H11.4943V25.8001H12.5937V24.7251Z" fill="#FAFFFF"/>
<path d="M13.6932 24.7251H12.5938V25.8001H13.6932V24.7251Z" fill="#FAFFFF"/>
<path d="M14.7927 24.7251H13.6932V25.8001H14.7927V24.7251Z" fill="#FAFFFF"/>
<path d="M15.892 24.7251H14.7926V25.8001H15.892V24.7251Z" fill="#FAFFFF"/>
<path d="M16.9915 24.7251H15.8921V25.8001H16.9915V24.7251Z" fill="#FAFFFF"/>
<path d="M18.0909 24.7251H16.9915V25.8001H18.0909V24.7251Z" fill="#FAFFFF"/>
<path d="M19.1904 24.7251H18.0909V25.8001H19.1904V24.7251Z" fill="#FAFFFF"/>
<path d="M20.2897 24.7251H19.1903V25.8001H20.2897V24.7251Z" fill="#FAFFFF"/>
<path d="M21.3892 24.7251H20.2898V25.8001H21.3892V24.7251Z" fill="#FAFFFF"/>
<path d="M22.4886 24.7251H21.3892V25.8001H22.4886V24.7251Z" fill="#FAFFFF"/>
<path d="M23.5881 24.7251H22.4886V25.8001H23.5881V24.7251Z" fill="#7A399D"/>
<path d="M24.6874 24.7251H23.588V25.8001H24.6874V24.7251Z" fill="#7A399D"/>
<path d="M25.7869 24.7251H24.6875V25.8001H25.7869V24.7251Z" fill="#7A399D"/>
<path d="M26.8864 24.7251H25.787V25.8001H26.8864V24.7251Z" fill="#7A399D"/>
<path d="M27.9858 24.7251H26.8864V25.8001H27.9858V24.7251Z" fill="#C7D4E1"/>
<path d="M29.0853 24.7251H27.9858V25.8001H29.0853V24.7251Z" fill="#C7D4E1"/>
<path d="M30.1846 24.7251H29.0852V25.8001H30.1846V24.7251Z" fill="#C7D4E1"/>
<path d="M31.2841 24.7251H30.1847V25.8001H31.2841V24.7251Z" fill="#C7D4E1"/>
<path d="M32.3835 24.7251H31.2841V25.8001H32.3835V24.7251Z" fill="#0F022E"/>
<path d="M33.483 24.7251H32.3835V25.8001H33.483V24.7251Z" fill="#0F022E"/>
<path d="M34.5823 24.7251H33.4829V25.8001H34.5823V24.7251Z" fill="#0F022E"/>
<path d="M35.6818 24.7251H34.5824V25.8001H35.6818V24.7251Z" fill="#0F022E"/>
<path d="M1.59943 25.8H0.5V26.875H1.59943V25.8Z" fill="#0F022E"/>
<path d="M2.69892 25.8H1.59949V26.875H2.69892V25.8Z" fill="#0F022E"/>
<path d="M3.79828 25.8H2.69885V26.875H3.79828V25.8Z" fill="#0F022E"/>
<path d="M4.89777 25.8H3.79834V26.875H4.89777V25.8Z" fill="#0F022E"/>
<path d="M5.99714 25.8H4.89771V26.875H5.99714V25.8Z" fill="#928FB8"/>
<path d="M7.09662 25.8H5.99719V26.875H7.09662V25.8Z" fill="#928FB8"/>
<path d="M8.19599 25.8H7.09656V26.875H8.19599V25.8Z" fill="#928FB8"/>
<path d="M9.29548 25.8H8.19604V26.875H9.29548V25.8Z" fill="#928FB8"/>
<path d="M10.3948 25.8H9.29541V26.875H10.3948V25.8Z" fill="#C7D4E1"/>
<path d="M11.4943 25.8H10.3949V26.875H11.4943V25.8Z" fill="#C7D4E1"/>
<path d="M12.5937 25.8H11.4943V26.875H12.5937V25.8Z" fill="#C7D4E1"/>
<path d="M13.6932 25.8H12.5938V26.875H13.6932V25.8Z" fill="#C7D4E1"/>
<path d="M14.7927 25.8H13.6932V26.875H14.7927V25.8Z" fill="#FAFFFF"/>
<path d="M15.892 25.8H14.7926V26.875H15.892V25.8Z" fill="#FAFFFF"/>
<path d="M16.9915 25.8H15.8921V26.875H16.9915V25.8Z" fill="#FAFFFF"/>
<path d="M18.0909 25.8H16.9915V26.875H18.0909V25.8Z" fill="#FAFFFF"/>
<path d="M19.1904 25.8H18.0909V26.875H19.1904V25.8Z" fill="#FAFFFF"/>
<path d="M20.2897 25.8H19.1903V26.875H20.2897V25.8Z" fill="#FAFFFF"/>
<path d="M21.3892 25.8H20.2898V26.875H21.3892V25.8Z" fill="#FAFFFF"/>
<path d="M22.4886 25.8H21.3892V26.875H22.4886V25.8Z" fill="#FAFFFF"/>
<path d="M23.5881 25.8H22.4886V26.875H23.5881V25.8Z" fill="#C7D4E1"/>
<path d="M24.6874 25.8H23.588V26.875H24.6874V25.8Z" fill="#C7D4E1"/>
<path d="M25.7869 25.8H24.6875V26.875H25.7869V25.8Z" fill="#C7D4E1"/>
<path d="M26.8864 25.8H25.787V26.875H26.8864V25.8Z" fill="#C7D4E1"/>
<path d="M27.9858 25.8H26.8864V26.875H27.9858V25.8Z" fill="#928FB8"/>
<path d="M29.0853 25.8H27.9858V26.875H29.0853V25.8Z" fill="#928FB8"/>
<path d="M30.1846 25.8H29.0852V26.875H30.1846V25.8Z" fill="#928FB8"/>
<path d="M31.2841 25.8H30.1847V26.875H31.2841V25.8Z" fill="#928FB8"/>
<path d="M32.3835 25.8H31.2841V26.875H32.3835V25.8Z" fill="#0F022E"/>
<path d="M33.483 25.8H32.3835V26.875H33.483V25.8Z" fill="#0F022E"/>
<path d="M34.5823 25.8H33.4829V26.875H34.5823V25.8Z" fill="#0F022E"/>
<path d="M35.6818 25.8H34.5824V26.875H35.6818V25.8Z" fill="#0F022E"/>
<path d="M1.59943 26.875H0.5V27.95H1.59943V26.875Z" fill="#0F022E"/>
<path d="M2.69892 26.875H1.59949V27.95H2.69892V26.875Z" fill="#0F022E"/>
<path d="M3.79828 26.875H2.69885V27.95H3.79828V26.875Z" fill="#0F022E"/>
<path d="M4.89777 26.875H3.79834V27.95H4.89777V26.875Z" fill="#0F022E"/>
<path d="M5.99714 26.875H4.89771V27.95H5.99714V26.875Z" fill="#928FB8"/>
<path d="M7.09662 26.875H5.99719V27.95H7.09662V26.875Z" fill="#928FB8"/>
<path d="M8.19599 26.875H7.09656V27.95H8.19599V26.875Z" fill="#928FB8"/>
<path d="M9.29548 26.875H8.19604V27.95H9.29548V26.875Z" fill="#928FB8"/>
<path d="M10.3948 26.875H9.29541V27.95H10.3948V26.875Z" fill="#C7D4E1"/>
<path d="M11.4943 26.875H10.3949V27.95H11.4943V26.875Z" fill="#C7D4E1"/>
<path d="M12.5937 26.875H11.4943V27.95H12.5937V26.875Z" fill="#C7D4E1"/>
<path d="M13.6932 26.875H12.5938V27.95H13.6932V26.875Z" fill="#C7D4E1"/>
<path d="M14.7927 26.875H13.6932V27.95H14.7927V26.875Z" fill="#FAFFFF"/>
<path d="M15.892 26.875H14.7926V27.95H15.892V26.875Z" fill="#FAFFFF"/>
<path d="M16.9915 26.875H15.8921V27.95H16.9915V26.875Z" fill="#FAFFFF"/>
<path d="M18.0909 26.875H16.9915V27.95H18.0909V26.875Z" fill="#FAFFFF"/>
<path d="M19.1904 26.875H18.0909V27.95H19.1904V26.875Z" fill="#FAFFFF"/>
<path d="M20.2897 26.875H19.1903V27.95H20.2897V26.875Z" fill="#FAFFFF"/>
<path d="M21.3892 26.875H20.2898V27.95H21.3892V26.875Z" fill="#FAFFFF"/>
<path d="M22.4886 26.875H21.3892V27.95H22.4886V26.875Z" fill="#FAFFFF"/>
<path d="M23.5881 26.875H22.4886V27.95H23.5881V26.875Z" fill="#C7D4E1"/>
<path d="M24.6874 26.875H23.588V27.95H24.6874V26.875Z" fill="#C7D4E1"/>
<path d="M25.7869 26.875H24.6875V27.95H25.7869V26.875Z" fill="#C7D4E1"/>
<path d="M26.8864 26.875H25.787V27.95H26.8864V26.875Z" fill="#C7D4E1"/>
<path d="M27.9858 26.875H26.8864V27.95H27.9858V26.875Z" fill="#928FB8"/>
<path d="M29.0853 26.875H27.9858V27.95H29.0853V26.875Z" fill="#928FB8"/>
<path d="M30.1846 26.875H29.0852V27.95H30.1846V26.875Z" fill="#928FB8"/>
<path d="M31.2841 26.875H30.1847V27.95H31.2841V26.875Z" fill="#928FB8"/>
<path d="M32.3835 26.875H31.2841V27.95H32.3835V26.875Z" fill="#0F022E"/>
<path d="M33.483 26.875H32.3835V27.95H33.483V26.875Z" fill="#0F022E"/>
<path d="M34.5823 26.875H33.4829V27.95H34.5823V26.875Z" fill="#0F022E"/>
<path d="M35.6818 26.875H34.5824V27.95H35.6818V26.875Z" fill="#0F022E"/>
<path d="M1.59943 27.95H0.5V29.025H1.59943V27.95Z" fill="#0F022E"/>
<path d="M2.69892 27.95H1.59949V29.025H2.69892V27.95Z" fill="#0F022E"/>
<path d="M3.79828 27.95H2.69885V29.025H3.79828V27.95Z" fill="#0F022E"/>
<path d="M4.89777 27.95H3.79834V29.025H4.89777V27.95Z" fill="#0F022E"/>
<path d="M5.99714 27.95H4.89771V29.025H5.99714V27.95Z" fill="#928FB8"/>
<path d="M7.09662 27.95H5.99719V29.025H7.09662V27.95Z" fill="#928FB8"/>
<path d="M8.19599 27.95H7.09656V29.025H8.19599V27.95Z" fill="#928FB8"/>
<path d="M9.29548 27.95H8.19604V29.025H9.29548V27.95Z" fill="#928FB8"/>
<path d="M10.3948 27.95H9.29541V29.025H10.3948V27.95Z" fill="#C7D4E1"/>
<path d="M11.4943 27.95H10.3949V29.025H11.4943V27.95Z" fill="#C7D4E1"/>
<path d="M12.5937 27.95H11.4943V29.025H12.5937V27.95Z" fill="#C7D4E1"/>
<path d="M13.6932 27.95H12.5938V29.025H13.6932V27.95Z" fill="#C7D4E1"/>
<path d="M14.7927 27.95H13.6932V29.025H14.7927V27.95Z" fill="#FAFFFF"/>
<path d="M15.892 27.95H14.7926V29.025H15.892V27.95Z" fill="#FAFFFF"/>
<path d="M16.9915 27.95H15.8921V29.025H16.9915V27.95Z" fill="#FAFFFF"/>
<path d="M18.0909 27.95H16.9915V29.025H18.0909V27.95Z" fill="#FAFFFF"/>
<path d="M19.1904 27.95H18.0909V29.025H19.1904V27.95Z" fill="#FAFFFF"/>
<path d="M20.2897 27.95H19.1903V29.025H20.2897V27.95Z" fill="#FAFFFF"/>
<path d="M21.3892 27.95H20.2898V29.025H21.3892V27.95Z" fill="#FAFFFF"/>
<path d="M22.4886 27.95H21.3892V29.025H22.4886V27.95Z" fill="#FAFFFF"/>
<path d="M23.5881 27.95H22.4886V29.025H23.5881V27.95Z" fill="#C7D4E1"/>
<path d="M24.6874 27.95H23.588V29.025H24.6874V27.95Z" fill="#C7D4E1"/>
<path d="M25.7869 27.95H24.6875V29.025H25.7869V27.95Z" fill="#C7D4E1"/>
<path d="M26.8864 27.95H25.787V29.025H26.8864V27.95Z" fill="#C7D4E1"/>
<path d="M27.9858 27.95H26.8864V29.025H27.9858V27.95Z" fill="#928FB8"/>
<path d="M29.0853 27.95H27.9858V29.025H29.0853V27.95Z" fill="#928FB8"/>
<path d="M30.1846 27.95H29.0852V29.025H30.1846V27.95Z" fill="#928FB8"/>
<path d="M31.2841 27.95H30.1847V29.025H31.2841V27.95Z" fill="#928FB8"/>
<path d="M32.3835 27.95H31.2841V29.025H32.3835V27.95Z" fill="#0F022E"/>
<path d="M33.483 27.95H32.3835V29.025H33.483V27.95Z" fill="#0F022E"/>
<path d="M34.5823 27.95H33.4829V29.025H34.5823V27.95Z" fill="#0F022E"/>
<path d="M35.6818 27.95H34.5824V29.025H35.6818V27.95Z" fill="#0F022E"/>
<path d="M1.59943 29.0249H0.5V30.0999H1.59943V29.0249Z" fill="#0F022E"/>
<path d="M2.69892 29.0249H1.59949V30.0999H2.69892V29.0249Z" fill="#0F022E"/>
<path d="M3.79828 29.0249H2.69885V30.0999H3.79828V29.0249Z" fill="#0F022E"/>
<path d="M4.89777 29.0249H3.79834V30.0999H4.89777V29.0249Z" fill="#0F022E"/>
<path d="M5.99714 29.0249H4.89771V30.0999H5.99714V29.0249Z" fill="#928FB8"/>
<path d="M7.09662 29.0249H5.99719V30.0999H7.09662V29.0249Z" fill="#928FB8"/>
<path d="M8.19599 29.0249H7.09656V30.0999H8.19599V29.0249Z" fill="#928FB8"/>
<path d="M9.29548 29.0249H8.19604V30.0999H9.29548V29.0249Z" fill="#928FB8"/>
<path d="M10.3948 29.0249H9.29541V30.0999H10.3948V29.0249Z" fill="#C7D4E1"/>
<path d="M11.4943 29.0249H10.3949V30.0999H11.4943V29.0249Z" fill="#C7D4E1"/>
<path d="M12.5937 29.0249H11.4943V30.0999H12.5937V29.0249Z" fill="#C7D4E1"/>
<path d="M13.6932 29.0249H12.5938V30.0999H13.6932V29.0249Z" fill="#C7D4E1"/>
<path d="M14.7927 29.0249H13.6932V30.0999H14.7927V29.0249Z" fill="#FAFFFF"/>
<path d="M15.892 29.0249H14.7926V30.0999H15.892V29.0249Z" fill="#FAFFFF"/>
<path d="M16.9915 29.0249H15.8921V30.0999H16.9915V29.0249Z" fill="#FAFFFF"/>
<path d="M18.0909 29.0249H16.9915V30.0999H18.0909V29.0249Z" fill="#FAFFFF"/>
<path d="M19.1904 29.0249H18.0909V30.0999H19.1904V29.0249Z" fill="#FAFFFF"/>
<path d="M20.2897 29.0249H19.1903V30.0999H20.2897V29.0249Z" fill="#FAFFFF"/>
<path d="M21.3892 29.0249H20.2898V30.0999H21.3892V29.0249Z" fill="#FAFFFF"/>
<path d="M22.4886 29.0249H21.3892V30.0999H22.4886V29.0249Z" fill="#FAFFFF"/>
<path d="M23.5881 29.0249H22.4886V30.0999H23.5881V29.0249Z" fill="#C7D4E1"/>
<path d="M24.6874 29.0249H23.588V30.0999H24.6874V29.0249Z" fill="#C7D4E1"/>
<path d="M25.7869 29.0249H24.6875V30.0999H25.7869V29.0249Z" fill="#C7D4E1"/>
<path d="M26.8864 29.0249H25.787V30.0999H26.8864V29.0249Z" fill="#C7D4E1"/>
<path d="M27.9858 29.0249H26.8864V30.0999H27.9858V29.0249Z" fill="#928FB8"/>
<path d="M29.0853 29.0249H27.9858V30.0999H29.0853V29.0249Z" fill="#928FB8"/>
<path d="M30.1846 29.0249H29.0852V30.0999H30.1846V29.0249Z" fill="#928FB8"/>
<path d="M31.2841 29.0249H30.1847V30.0999H31.2841V29.0249Z" fill="#928FB8"/>
<path d="M32.3835 29.0249H31.2841V30.0999H32.3835V29.0249Z" fill="#0F022E"/>
<path d="M33.483 29.0249H32.3835V30.0999H33.483V29.0249Z" fill="#0F022E"/>
<path d="M34.5823 29.0249H33.4829V30.0999H34.5823V29.0249Z" fill="#0F022E"/>
<path d="M35.6818 29.0249H34.5824V30.0999H35.6818V29.0249Z" fill="#0F022E"/>
<path d="M1.59943 30.1001H0.5V31.1751H1.59943V30.1001Z" fill="#0F022E"/>
<path d="M2.69892 30.1001H1.59949V31.1751H2.69892V30.1001Z" fill="#0F022E"/>
<path d="M3.79828 30.1001H2.69885V31.1751H3.79828V30.1001Z" fill="#0F022E"/>
<path d="M4.89777 30.1001H3.79834V31.1751H4.89777V30.1001Z" fill="#0F022E"/>
<path d="M5.99714 30.1001H4.89771V31.1751H5.99714V30.1001Z" fill="#928FB8"/>
<path d="M7.09662 30.1001H5.99719V31.1751H7.09662V30.1001Z" fill="#928FB8"/>
<path d="M8.19599 30.1001H7.09656V31.1751H8.19599V30.1001Z" fill="#928FB8"/>
<path d="M9.29548 30.1001H8.19604V31.1751H9.29548V30.1001Z" fill="#928FB8"/>
<path d="M10.3948 30.1001H9.29541V31.1751H10.3948V30.1001Z" fill="#928FB8"/>
<path d="M11.4943 30.1001H10.3949V31.1751H11.4943V30.1001Z" fill="#928FB8"/>
<path d="M12.5937 30.1001H11.4943V31.1751H12.5937V30.1001Z" fill="#928FB8"/>
<path d="M13.6932 30.1001H12.5938V31.1751H13.6932V30.1001Z" fill="#928FB8"/>
<path d="M14.7927 30.1001H13.6932V31.1751H14.7927V30.1001Z" fill="#7A399D"/>
<path d="M15.892 30.1001H14.7926V31.1751H15.892V30.1001Z" fill="#7A399D"/>
<path d="M16.9915 30.1001H15.8921V31.1751H16.9915V30.1001Z" fill="#7A399D"/>
<path d="M18.0909 30.1001H16.9915V31.1751H18.0909V30.1001Z" fill="#7A399D"/>
<path d="M19.1904 30.1001H18.0909V31.1751H19.1904V30.1001Z" fill="#7A399D"/>
<path d="M20.2897 30.1001H19.1903V31.1751H20.2897V30.1001Z" fill="#7A399D"/>
<path d="M21.3892 30.1001H20.2898V31.1751H21.3892V30.1001Z" fill="#7A399D"/>
<path d="M22.4886 30.1001H21.3892V31.1751H22.4886V30.1001Z" fill="#7A399D"/>
<path d="M23.5881 30.1001H22.4886V31.1751H23.5881V30.1001Z" fill="#928FB8"/>
<path d="M24.6874 30.1001H23.588V31.1751H24.6874V30.1001Z" fill="#928FB8"/>
<path d="M25.7869 30.1001H24.6875V31.1751H25.7869V30.1001Z" fill="#928FB8"/>
<path d="M26.8864 30.1001H25.787V31.1751H26.8864V30.1001Z" fill="#928FB8"/>
<path d="M27.9858 30.1001H26.8864V31.1751H27.9858V30.1001Z" fill="#928FB8"/>
<path d="M29.0853 30.1001H27.9858V31.1751H29.0853V30.1001Z" fill="#928FB8"/>
<path d="M30.1846 30.1001H29.0852V31.1751H30.1846V30.1001Z" fill="#928FB8"/>
<path d="M31.2841 30.1001H30.1847V31.1751H31.2841V30.1001Z" fill="#928FB8"/>
<path d="M32.3835 30.1001H31.2841V31.1751H32.3835V30.1001Z" fill="#0F022E"/>
<path d="M33.483 30.1001H32.3835V31.1751H33.483V30.1001Z" fill="#0F022E"/>
<path d="M34.5823 30.1001H33.4829V31.1751H34.5823V30.1001Z" fill="#0F022E"/>
<path d="M35.6818 30.1001H34.5824V31.1751H35.6818V30.1001Z" fill="#0F022E"/>
<path d="M1.59943 31.175H0.5V32.25H1.59943V31.175Z" fill="#0F022E"/>
<path d="M2.69892 31.175H1.59949V32.25H2.69892V31.175Z" fill="#0F022E"/>
<path d="M3.79828 31.175H2.69885V32.25H3.79828V31.175Z" fill="#0F022E"/>
<path d="M4.89777 31.175H3.79834V32.25H4.89777V31.175Z" fill="#0F022E"/>
<path d="M5.99714 31.175H4.89771V32.25H5.99714V31.175Z" fill="#928FB8"/>
<path d="M7.09662 31.175H5.99719V32.25H7.09662V31.175Z" fill="#928FB8"/>
<path d="M8.19599 31.175H7.09656V32.25H8.19599V31.175Z" fill="#928FB8"/>
<path d="M9.29548 31.175H8.19604V32.25H9.29548V31.175Z" fill="#928FB8"/>
<path d="M10.3948 31.175H9.29541V32.25H10.3948V31.175Z" fill="#928FB8"/>
<path d="M11.4943 31.175H10.3949V32.25H11.4943V31.175Z" fill="#928FB8"/>
<path d="M12.5937 31.175H11.4943V32.25H12.5937V31.175Z" fill="#928FB8"/>
<path d="M13.6932 31.175H12.5938V32.25H13.6932V31.175Z" fill="#928FB8"/>
<path d="M14.7927 31.175H13.6932V32.25H14.7927V31.175Z" fill="#7A399D"/>
<path d="M15.892 31.175H14.7926V32.25H15.892V31.175Z" fill="#7A399D"/>
<path d="M16.9915 31.175H15.8921V32.25H16.9915V31.175Z" fill="#7A399D"/>
<path d="M18.0909 31.175H16.9915V32.25H18.0909V31.175Z" fill="#7A399D"/>
<path d="M19.1904 31.175H18.0909V32.25H19.1904V31.175Z" fill="#7A399D"/>
<path d="M20.2897 31.175H19.1903V32.25H20.2897V31.175Z" fill="#7A399D"/>
<path d="M21.3892 31.175H20.2898V32.25H21.3892V31.175Z" fill="#7A399D"/>
<path d="M22.4886 31.175H21.3892V32.25H22.4886V31.175Z" fill="#7A399D"/>
<path d="M23.5881 31.175H22.4886V32.25H23.5881V31.175Z" fill="#928FB8"/>
<path d="M24.6874 31.175H23.588V32.25H24.6874V31.175Z" fill="#928FB8"/>
<path d="M25.7869 31.175H24.6875V32.25H25.7869V31.175Z" fill="#928FB8"/>
<path d="M26.8864 31.175H25.787V32.25H26.8864V31.175Z" fill="#928FB8"/>
<path d="M27.9858 31.175H26.8864V32.25H27.9858V31.175Z" fill="#928FB8"/>
<path d="M29.0853 31.175H27.9858V32.25H29.0853V31.175Z" fill="#928FB8"/>
<path d="M30.1846 31.175H29.0852V32.25H30.1846V31.175Z" fill="#928FB8"/>
<path d="M31.2841 31.175H30.1847V32.25H31.2841V31.175Z" fill="#928FB8"/>
<path d="M32.3835 31.175H31.2841V32.25H32.3835V31.175Z" fill="#0F022E"/>
<path d="M33.483 31.175H32.3835V32.25H33.483V31.175Z" fill="#0F022E"/>
<path d="M34.5823 31.175H33.4829V32.25H34.5823V31.175Z" fill="#0F022E"/>
<path d="M35.6818 31.175H34.5824V32.25H35.6818V31.175Z" fill="#0F022E"/>
<path d="M1.59943 32.25H0.5V33.325H1.59943V32.25Z" fill="#0F022E"/>
<path d="M2.69892 32.25H1.59949V33.325H2.69892V32.25Z" fill="#0F022E"/>
<path d="M3.79828 32.25H2.69885V33.325H3.79828V32.25Z" fill="#0F022E"/>
<path d="M4.89777 32.25H3.79834V33.325H4.89777V32.25Z" fill="#0F022E"/>
<path d="M5.99714 32.25H4.89771V33.325H5.99714V32.25Z" fill="#928FB8"/>
<path d="M7.09662 32.25H5.99719V33.325H7.09662V32.25Z" fill="#928FB8"/>
<path d="M8.19599 32.25H7.09656V33.325H8.19599V32.25Z" fill="#928FB8"/>
<path d="M9.29548 32.25H8.19604V33.325H9.29548V32.25Z" fill="#928FB8"/>
<path d="M10.3948 32.25H9.29541V33.325H10.3948V32.25Z" fill="#928FB8"/>
<path d="M11.4943 32.25H10.3949V33.325H11.4943V32.25Z" fill="#928FB8"/>
<path d="M12.5937 32.25H11.4943V33.325H12.5937V32.25Z" fill="#928FB8"/>
<path d="M13.6932 32.25H12.5938V33.325H13.6932V32.25Z" fill="#928FB8"/>
<path d="M14.7927 32.25H13.6932V33.325H14.7927V32.25Z" fill="#7A399D"/>
<path d="M15.892 32.25H14.7926V33.325H15.892V32.25Z" fill="#7A399D"/>
<path d="M16.9915 32.25H15.8921V33.325H16.9915V32.25Z" fill="#7A399D"/>
<path d="M18.0909 32.25H16.9915V33.325H18.0909V32.25Z" fill="#7A399D"/>
<path d="M19.1904 32.25H18.0909V33.325H19.1904V32.25Z" fill="#7A399D"/>
<path d="M20.2897 32.25H19.1903V33.325H20.2897V32.25Z" fill="#7A399D"/>
<path d="M21.3892 32.25H20.2898V33.325H21.3892V32.25Z" fill="#7A399D"/>
<path d="M22.4886 32.25H21.3892V33.325H22.4886V32.25Z" fill="#7A399D"/>
<path d="M23.5881 32.25H22.4886V33.325H23.5881V32.25Z" fill="#928FB8"/>
<path d="M24.6874 32.25H23.588V33.325H24.6874V32.25Z" fill="#928FB8"/>
<path d="M25.7869 32.25H24.6875V33.325H25.7869V32.25Z" fill="#928FB8"/>
<path d="M26.8864 32.25H25.787V33.325H26.8864V32.25Z" fill="#928FB8"/>
<path d="M27.9858 32.25H26.8864V33.325H27.9858V32.25Z" fill="#928FB8"/>
<path d="M29.0853 32.25H27.9858V33.325H29.0853V32.25Z" fill="#928FB8"/>
<path d="M30.1846 32.25H29.0852V33.325H30.1846V32.25Z" fill="#928FB8"/>
<path d="M31.2841 32.25H30.1847V33.325H31.2841V32.25Z" fill="#928FB8"/>
<path d="M32.3835 32.25H31.2841V33.325H32.3835V32.25Z" fill="#0F022E"/>
<path d="M33.483 32.25H32.3835V33.325H33.483V32.25Z" fill="#0F022E"/>
<path d="M34.5823 32.25H33.4829V33.325H34.5823V32.25Z" fill="#0F022E"/>
<path d="M35.6818 32.25H34.5824V33.325H35.6818V32.25Z" fill="#0F022E"/>
<path d="M1.59943 33.325H0.5V34.4H1.59943V33.325Z" fill="#0F022E"/>
<path d="M2.69892 33.325H1.59949V34.4H2.69892V33.325Z" fill="#0F022E"/>
<path d="M3.79828 33.325H2.69885V34.4H3.79828V33.325Z" fill="#0F022E"/>
<path d="M4.89777 33.325H3.79834V34.4H4.89777V33.325Z" fill="#0F022E"/>
<path d="M5.99714 33.325H4.89771V34.4H5.99714V33.325Z" fill="#928FB8"/>
<path d="M7.09662 33.325H5.99719V34.4H7.09662V33.325Z" fill="#928FB8"/>
<path d="M8.19599 33.325H7.09656V34.4H8.19599V33.325Z" fill="#928FB8"/>
<path d="M9.29548 33.325H8.19604V34.4H9.29548V33.325Z" fill="#928FB8"/>
<path d="M10.3948 33.325H9.29541V34.4H10.3948V33.325Z" fill="#928FB8"/>
<path d="M11.4943 33.325H10.3949V34.4H11.4943V33.325Z" fill="#928FB8"/>
<path d="M12.5937 33.325H11.4943V34.4H12.5937V33.325Z" fill="#928FB8"/>
<path d="M13.6932 33.325H12.5938V34.4H13.6932V33.325Z" fill="#928FB8"/>
<path d="M14.7927 33.325H13.6932V34.4H14.7927V33.325Z" fill="#7A399D"/>
<path d="M15.892 33.325H14.7926V34.4H15.892V33.325Z" fill="#7A399D"/>
<path d="M16.9915 33.325H15.8921V34.4H16.9915V33.325Z" fill="#7A399D"/>
<path d="M18.0909 33.325H16.9915V34.4H18.0909V33.325Z" fill="#7A399D"/>
<path d="M19.1904 33.325H18.0909V34.4H19.1904V33.325Z" fill="#7A399D"/>
<path d="M20.2897 33.325H19.1903V34.4H20.2897V33.325Z" fill="#7A399D"/>
<path d="M21.3892 33.325H20.2898V34.4H21.3892V33.325Z" fill="#7A399D"/>
<path d="M22.4886 33.325H21.3892V34.4H22.4886V33.325Z" fill="#7A399D"/>
<path d="M23.5881 33.325H22.4886V34.4H23.5881V33.325Z" fill="#928FB8"/>
<path d="M24.6874 33.325H23.588V34.4H24.6874V33.325Z" fill="#928FB8"/>
<path d="M25.7869 33.325H24.6875V34.4H25.7869V33.325Z" fill="#928FB8"/>
<path d="M26.8864 33.325H25.787V34.4H26.8864V33.325Z" fill="#928FB8"/>
<path d="M27.9858 33.325H26.8864V34.4H27.9858V33.325Z" fill="#928FB8"/>
<path d="M29.0853 33.325H27.9858V34.4H29.0853V33.325Z" fill="#928FB8"/>
<path d="M30.1846 33.325H29.0852V34.4H30.1846V33.325Z" fill="#928FB8"/>
<path d="M31.2841 33.325H30.1847V34.4H31.2841V33.325Z" fill="#928FB8"/>
<path d="M32.3835 33.325H31.2841V34.4H32.3835V33.325Z" fill="#0F022E"/>
<path d="M33.483 33.325H32.3835V34.4H33.483V33.325Z" fill="#0F022E"/>
<path d="M34.5823 33.325H33.4829V34.4H34.5823V33.325Z" fill="#0F022E"/>
<path d="M35.6818 33.325H34.5824V34.4H35.6818V33.325Z" fill="#0F022E"/>
<path d="M5.99714 34.3999H4.89771V35.4749H5.99714V34.3999Z" fill="#0F022E"/>
<path d="M7.09662 34.3999H5.99719V35.4749H7.09662V34.3999Z" fill="#0F022E"/>
<path d="M8.19599 34.3999H7.09656V35.4749H8.19599V34.3999Z" fill="#0F022E"/>
<path d="M9.29548 34.3999H8.19604V35.4749H9.29548V34.3999Z" fill="#0F022E"/>
<path d="M10.3948 34.3999H9.29541V35.4749H10.3948V34.3999Z" fill="#928FB8"/>
<path d="M11.4943 34.3999H10.3949V35.4749H11.4943V34.3999Z" fill="#928FB8"/>
<path d="M12.5937 34.3999H11.4943V35.4749H12.5937V34.3999Z" fill="#928FB8"/>
<path d="M13.6932 34.3999H12.5938V35.4749H13.6932V34.3999Z" fill="#928FB8"/>
<path d="M14.7927 34.3999H13.6932V35.4749H14.7927V34.3999Z" fill="#7A399D"/>
<path d="M15.892 34.3999H14.7926V35.4749H15.892V34.3999Z" fill="#7A399D"/>
<path d="M16.9915 34.3999H15.8921V35.4749H16.9915V34.3999Z" fill="#7A399D"/>
<path d="M18.0909 34.3999H16.9915V35.4749H18.0909V34.3999Z" fill="#7A399D"/>
<path d="M19.1904 34.3999H18.0909V35.4749H19.1904V34.3999Z" fill="#7A399D"/>
<path d="M20.2897 34.3999H19.1903V35.4749H20.2897V34.3999Z" fill="#7A399D"/>
<path d="M21.3892 34.3999H20.2898V35.4749H21.3892V34.3999Z" fill="#7A399D"/>
<path d="M22.4886 34.3999H21.3892V35.4749H22.4886V34.3999Z" fill="#7A399D"/>
<path d="M23.5881 34.3999H22.4886V35.4749H23.5881V34.3999Z" fill="#928FB8"/>
<path d="M24.6874 34.3999H23.588V35.4749H24.6874V34.3999Z" fill="#928FB8"/>
<path d="M25.7869 34.3999H24.6875V35.4749H25.7869V34.3999Z" fill="#928FB8"/>
<path d="M26.8864 34.3999H25.787V35.4749H26.8864V34.3999Z" fill="#928FB8"/>
<path d="M27.9858 34.3999H26.8864V35.4749H27.9858V34.3999Z" fill="#0F022E"/>
<path d="M29.0853 34.3999H27.9858V35.4749H29.0853V34.3999Z" fill="#0F022E"/>
<path d="M30.1846 34.3999H29.0852V35.4749H30.1846V34.3999Z" fill="#0F022E"/>
<path d="M31.2841 34.3999H30.1847V35.4749H31.2841V34.3999Z" fill="#0F022E"/>
<path d="M5.99714 35.4751H4.89771V36.5501H5.99714V35.4751Z" fill="#0F022E"/>
<path d="M7.09662 35.4751H5.99719V36.5501H7.09662V35.4751Z" fill="#0F022E"/>
<path d="M8.19599 35.4751H7.09656V36.5501H8.19599V35.4751Z" fill="#0F022E"/>
<path d="M9.29548 35.4751H8.19604V36.5501H9.29548V35.4751Z" fill="#0F022E"/>
<path d="M10.3948 35.4751H9.29541V36.5501H10.3948V35.4751Z" fill="#928FB8"/>
<path d="M11.4943 35.4751H10.3949V36.5501H11.4943V35.4751Z" fill="#928FB8"/>
<path d="M12.5937 35.4751H11.4943V36.5501H12.5937V35.4751Z" fill="#928FB8"/>
<path d="M13.6932 35.4751H12.5938V36.5501H13.6932V35.4751Z" fill="#928FB8"/>
<path d="M14.7927 35.4751H13.6932V36.5501H14.7927V35.4751Z" fill="#7A399D"/>
<path d="M15.892 35.4751H14.7926V36.5501H15.892V35.4751Z" fill="#7A399D"/>
<path d="M16.9915 35.4751H15.8921V36.5501H16.9915V35.4751Z" fill="#7A399D"/>
<path d="M18.0909 35.4751H16.9915V36.5501H18.0909V35.4751Z" fill="#7A399D"/>
<path d="M19.1904 35.4751H18.0909V36.5501H19.1904V35.4751Z" fill="#7A399D"/>
<path d="M20.2897 35.4751H19.1903V36.5501H20.2897V35.4751Z" fill="#7A399D"/>
<path d="M21.3892 35.4751H20.2898V36.5501H21.3892V35.4751Z" fill="#7A399D"/>
<path d="M22.4886 35.4751H21.3892V36.5501H22.4886V35.4751Z" fill="#7A399D"/>
<path d="M23.5881 35.4751H22.4886V36.5501H23.5881V35.4751Z" fill="#928FB8"/>
<path d="M24.6874 35.4751H23.588V36.5501H24.6874V35.4751Z" fill="#928FB8"/>
<path d="M25.7869 35.4751H24.6875V36.5501H25.7869V35.4751Z" fill="#928FB8"/>
<path d="M26.8864 35.4751H25.787V36.5501H26.8864V35.4751Z" fill="#928FB8"/>
<path d="M27.9858 35.4751H26.8864V36.5501H27.9858V35.4751Z" fill="#0F022E"/>
<path d="M29.0853 35.4751H27.9858V36.5501H29.0853V35.4751Z" fill="#0F022E"/>
<path d="M30.1846 35.4751H29.0852V36.5501H30.1846V35.4751Z" fill="#0F022E"/>
<path d="M31.2841 35.4751H30.1847V36.5501H31.2841V35.4751Z" fill="#0F022E"/>
<path d="M5.99714 36.55H4.89771V37.625H5.99714V36.55Z" fill="#0F022E"/>
<path d="M7.09662 36.55H5.99719V37.625H7.09662V36.55Z" fill="#0F022E"/>
<path d="M8.19599 36.55H7.09656V37.625H8.19599V36.55Z" fill="#0F022E"/>
<path d="M9.29548 36.55H8.19604V37.625H9.29548V36.55Z" fill="#0F022E"/>
<path d="M10.3948 36.55H9.29541V37.625H10.3948V36.55Z" fill="#928FB8"/>
<path d="M11.4943 36.55H10.3949V37.625H11.4943V36.55Z" fill="#928FB8"/>
<path d="M12.5937 36.55H11.4943V37.625H12.5937V36.55Z" fill="#928FB8"/>
<path d="M13.6932 36.55H12.5938V37.625H13.6932V36.55Z" fill="#928FB8"/>
<path d="M14.7927 36.55H13.6932V37.625H14.7927V36.55Z" fill="#7A399D"/>
<path d="M15.892 36.55H14.7926V37.625H15.892V36.55Z" fill="#7A399D"/>
<path d="M16.9915 36.55H15.8921V37.625H16.9915V36.55Z" fill="#7A399D"/>
<path d="M18.0909 36.55H16.9915V37.625H18.0909V36.55Z" fill="#7A399D"/>
<path d="M19.1904 36.55H18.0909V37.625H19.1904V36.55Z" fill="#7A399D"/>
<path d="M20.2897 36.55H19.1903V37.625H20.2897V36.55Z" fill="#7A399D"/>
<path d="M21.3892 36.55H20.2898V37.625H21.3892V36.55Z" fill="#7A399D"/>
<path d="M22.4886 36.55H21.3892V37.625H22.4886V36.55Z" fill="#7A399D"/>
<path d="M23.5881 36.55H22.4886V37.625H23.5881V36.55Z" fill="#928FB8"/>
<path d="M24.6874 36.55H23.588V37.625H24.6874V36.55Z" fill="#928FB8"/>
<path d="M25.7869 36.55H24.6875V37.625H25.7869V36.55Z" fill="#928FB8"/>
<path d="M26.8864 36.55H25.787V37.625H26.8864V36.55Z" fill="#928FB8"/>
<path d="M27.9858 36.55H26.8864V37.625H27.9858V36.55Z" fill="#0F022E"/>
<path d="M29.0853 36.55H27.9858V37.625H29.0853V36.55Z" fill="#0F022E"/>
<path d="M30.1846 36.55H29.0852V37.625H30.1846V36.55Z" fill="#0F022E"/>
<path d="M31.2841 36.55H30.1847V37.625H31.2841V36.55Z" fill="#0F022E"/>
<path d="M5.99714 37.625H4.89771V38.7H5.99714V37.625Z" fill="#0F022E"/>
<path d="M7.09662 37.625H5.99719V38.7H7.09662V37.625Z" fill="#0F022E"/>
<path d="M8.19599 37.625H7.09656V38.7H8.19599V37.625Z" fill="#0F022E"/>
<path d="M9.29548 37.625H8.19604V38.7H9.29548V37.625Z" fill="#0F022E"/>
<path d="M10.3948 37.625H9.29541V38.7H10.3948V37.625Z" fill="#928FB8"/>
<path d="M11.4943 37.625H10.3949V38.7H11.4943V37.625Z" fill="#928FB8"/>
<path d="M12.5937 37.625H11.4943V38.7H12.5937V37.625Z" fill="#928FB8"/>
<path d="M13.6932 37.625H12.5938V38.7H13.6932V37.625Z" fill="#928FB8"/>
<path d="M14.7927 37.625H13.6932V38.7H14.7927V37.625Z" fill="#7A399D"/>
<path d="M15.892 37.625H14.7926V38.7H15.892V37.625Z" fill="#7A399D"/>
<path d="M16.9915 37.625H15.8921V38.7H16.9915V37.625Z" fill="#7A399D"/>
<path d="M18.0909 37.625H16.9915V38.7H18.0909V37.625Z" fill="#7A399D"/>
<path d="M19.1904 37.625H18.0909V38.7H19.1904V37.625Z" fill="#7A399D"/>
<path d="M20.2897 37.625H19.1903V38.7H20.2897V37.625Z" fill="#7A399D"/>
<path d="M21.3892 37.625H20.2898V38.7H21.3892V37.625Z" fill="#7A399D"/>
<path d="M22.4886 37.625H21.3892V38.7H22.4886V37.625Z" fill="#7A399D"/>
<path d="M23.5881 37.625H22.4886V38.7H23.5881V37.625Z" fill="#928FB8"/>
<path d="M24.6874 37.625H23.588V38.7H24.6874V37.625Z" fill="#928FB8"/>
<path d="M25.7869 37.625H24.6875V38.7H25.7869V37.625Z" fill="#928FB8"/>
<path d="M26.8864 37.625H25.787V38.7H26.8864V37.625Z" fill="#928FB8"/>
<path d="M27.9858 37.625H26.8864V38.7H27.9858V37.625Z" fill="#0F022E"/>
<path d="M29.0853 37.625H27.9858V38.7H29.0853V37.625Z" fill="#0F022E"/>
<path d="M30.1846 37.625H29.0852V38.7H30.1846V37.625Z" fill="#0F022E"/>
<path d="M31.2841 37.625H30.1847V38.7H31.2841V37.625Z" fill="#0F022E"/>
<path d="M10.3948 38.7H9.29541V39.775H10.3948V38.7Z" fill="#0F022E"/>
<path d="M11.4943 38.7H10.3949V39.775H11.4943V38.7Z" fill="#0F022E"/>
<path d="M12.5937 38.7H11.4943V39.775H12.5937V38.7Z" fill="#0F022E"/>
<path d="M13.6932 38.7H12.5938V39.775H13.6932V38.7Z" fill="#0F022E"/>
<path d="M14.7927 38.7H13.6932V39.775H14.7927V38.7Z" fill="#0F022E"/>
<path d="M15.892 38.7H14.7926V39.775H15.892V38.7Z" fill="#0F022E"/>
<path d="M16.9915 38.7H15.8921V39.775H16.9915V38.7Z" fill="#0F022E"/>
<path d="M18.0909 38.7H16.9915V39.775H18.0909V38.7Z" fill="#0F022E"/>
<path d="M19.1904 38.7H18.0909V39.775H19.1904V38.7Z" fill="#0F022E"/>
<path d="M20.2897 38.7H19.1903V39.775H20.2897V38.7Z" fill="#0F022E"/>
<path d="M21.3892 38.7H20.2898V39.775H21.3892V38.7Z" fill="#0F022E"/>
<path d="M22.4886 38.7H21.3892V39.775H22.4886V38.7Z" fill="#0F022E"/>
<path d="M23.5881 38.7H22.4886V39.775H23.5881V38.7Z" fill="#0F022E"/>
<path d="M24.6874 38.7H23.588V39.775H24.6874V38.7Z" fill="#0F022E"/>
<path d="M25.7869 38.7H24.6875V39.775H25.7869V38.7Z" fill="#0F022E"/>
<path d="M26.8864 38.7H25.787V39.775H26.8864V38.7Z" fill="#0F022E"/>
<path d="M10.3948 39.7749H9.29541V40.8499H10.3948V39.7749Z" fill="#0F022E"/>
<path d="M11.4943 39.7749H10.3949V40.8499H11.4943V39.7749Z" fill="#0F022E"/>
<path d="M12.5937 39.7749H11.4943V40.8499H12.5937V39.7749Z" fill="#0F022E"/>
<path d="M13.6932 39.7749H12.5938V40.8499H13.6932V39.7749Z" fill="#0F022E"/>
<path d="M14.7927 39.7749H13.6932V40.8499H14.7927V39.7749Z" fill="#0F022E"/>
<path d="M15.892 39.7749H14.7926V40.8499H15.892V39.7749Z" fill="#0F022E"/>
<path d="M16.9915 39.7749H15.8921V40.8499H16.9915V39.7749Z" fill="#0F022E"/>
<path d="M18.0909 39.7749H16.9915V40.8499H18.0909V39.7749Z" fill="#0F022E"/>
<path d="M19.1904 39.7749H18.0909V40.8499H19.1904V39.7749Z" fill="#0F022E"/>
<path d="M20.2897 39.7749H19.1903V40.8499H20.2897V39.7749Z" fill="#0F022E"/>
<path d="M21.3892 39.7749H20.2898V40.8499H21.3892V39.7749Z" fill="#0F022E"/>
<path d="M22.4886 39.7749H21.3892V40.8499H22.4886V39.7749Z" fill="#0F022E"/>
<path d="M23.5881 39.7749H22.4886V40.8499H23.5881V39.7749Z" fill="#0F022E"/>
<path d="M24.6874 39.7749H23.588V40.8499H24.6874V39.7749Z" fill="#0F022E"/>
<path d="M25.7869 39.7749H24.6875V40.8499H25.7869V39.7749Z" fill="#0F022E"/>
<path d="M26.8864 39.7749H25.787V40.8499H26.8864V39.7749Z" fill="#0F022E"/>
<path d="M10.3948 40.8501H9.29541V41.9251H10.3948V40.8501Z" fill="#0F022E"/>
<path d="M11.4943 40.8501H10.3949V41.9251H11.4943V40.8501Z" fill="#0F022E"/>
<path d="M12.5937 40.8501H11.4943V41.9251H12.5937V40.8501Z" fill="#0F022E"/>
<path d="M13.6932 40.8501H12.5938V41.9251H13.6932V40.8501Z" fill="#0F022E"/>
<path d="M14.7927 40.8501H13.6932V41.9251H14.7927V40.8501Z" fill="#0F022E"/>
<path d="M15.892 40.8501H14.7926V41.9251H15.892V40.8501Z" fill="#0F022E"/>
<path d="M16.9915 40.8501H15.8921V41.9251H16.9915V40.8501Z" fill="#0F022E"/>
<path d="M18.0909 40.8501H16.9915V41.9251H18.0909V40.8501Z" fill="#0F022E"/>
<path d="M19.1904 40.8501H18.0909V41.9251H19.1904V40.8501Z" fill="#0F022E"/>
<path d="M20.2897 40.8501H19.1903V41.9251H20.2897V40.8501Z" fill="#0F022E"/>
<path d="M21.3892 40.8501H20.2898V41.9251H21.3892V40.8501Z" fill="#0F022E"/>
<path d="M22.4886 40.8501H21.3892V41.9251H22.4886V40.8501Z" fill="#0F022E"/>
<path d="M23.5881 40.8501H22.4886V41.9251H23.5881V40.8501Z" fill="#0F022E"/>
<path d="M24.6874 40.8501H23.588V41.9251H24.6874V40.8501Z" fill="#0F022E"/>
<path d="M25.7869 40.8501H24.6875V41.9251H25.7869V40.8501Z" fill="#0F022E"/>
<path d="M26.8864 40.8501H25.787V41.9251H26.8864V40.8501Z" fill="#0F022E"/>
<path d="M10.3948 41.925H9.29541V43H10.3948V41.925Z" fill="#0F022E"/>
<path d="M11.4943 41.925H10.3949V43H11.4943V41.925Z" fill="#0F022E"/>
<path d="M12.5937 41.925H11.4943V43H12.5937V41.925Z" fill="#0F022E"/>
<path d="M13.6932 41.925H12.5938V43H13.6932V41.925Z" fill="#0F022E"/>
<path d="M14.7927 41.925H13.6932V43H14.7927V41.925Z" fill="#0F022E"/>
<path d="M15.892 41.925H14.7926V43H15.892V41.925Z" fill="#0F022E"/>
<path d="M16.9915 41.925H15.8921V43H16.9915V41.925Z" fill="#0F022E"/>
<path d="M18.0909 41.925H16.9915V43H18.0909V41.925Z" fill="#0F022E"/>
<path d="M19.1904 41.925H18.0909V43H19.1904V41.925Z" fill="#0F022E"/>
<path d="M20.2897 41.925H19.1903V43H20.2897V41.925Z" fill="#0F022E"/>
<path d="M21.3892 41.925H20.2898V43H21.3892V41.925Z" fill="#0F022E"/>
<path d="M22.4886 41.925H21.3892V43H22.4886V41.925Z" fill="#0F022E"/>
<path d="M23.5881 41.925H22.4886V43H23.5881V41.925Z" fill="#0F022E"/>
<path d="M24.6874 41.925H23.588V43H24.6874V41.925Z" fill="#0F022E"/>
<path d="M25.7869 41.925H24.6875V43H25.7869V41.925Z" fill="#0F022E"/>
<path d="M26.8864 41.925H25.787V43H26.8864V41.925Z" fill="#0F022E"/>
</g>
<defs>
<clipPath id="clip0">
<rect x="0.5" width="35.1818" height="43" fill="white"/>
</clipPath>
</defs>
</svg>
